<svg xmlns="http://www.w3.org/2000/svg" version="1.1" viewBox="0.00 0.00 1200.00 900.00">
<g stroke-width="2.00" fill="none" stroke-linecap="butt">
<path stroke="#dc9d8a" vector-effect="non-scaling-stroke" d="
  M 185.10 483.62
  Q 195.17 514.94 221.34 535.42
  Q 234.70 545.88 251.48 551.89"></path>
<path stroke="#f9ba95" vector-effect="non-scaling-stroke" d="
  M 251.48 551.89
  Q 267.15 557.83 283.89 557.67
  Q 285.36 557.66 287.57 557.37
  C 290.63 556.97 294.24 556.91 296.76 556.39
  C 312.01 553.25 324.14 540.43 327.96 525.76
  Q 329.41 520.23 329.35 510.13
  Q 329.29 501.34 329.34 494.39
  A 0.62 0.62 0.0 0 1 329.96 493.78
  Q 337.26 493.82 344.99 493.78
  Q 355.25 493.73 359.94 492.70
  C 376.75 489.01 391.39 474.28 392.54 456.54
  Q 392.65 454.75 392.89 452.40
  Q 393.25 448.70 393.22 446.15
  Q 393.05 432.18 388.50 418.83"></path>
<path stroke="#dc9d8a" vector-effect="non-scaling-stroke" d="
  M 388.50 418.83
  Q 369.95 366.55 317.82 348.98"></path>
<path stroke="#f9ba95" vector-effect="non-scaling-stroke" d="
  M 317.82 348.98
  C 309.90 346.06 301.23 345.02 292.84 344.58
  Q 289.22 344.39 287.15 344.70
  Q 284.13 345.14 281.49 345.29
  C 263.95 346.29 249.67 360.19 245.39 376.52
  Q 243.94 382.05 243.97 392.07
  Q 243.99 399.24 243.99 407.77
  A 0.80 0.79 -90.0 0 1 243.20 408.57
  Q 232.77 408.55 228.20 408.51
  Q 218.31 408.42 213.23 409.57
  Q 198.17 413.00 188.45 425.72
  C 184.59 430.77 181.25 438.00 180.89 444.59
  Q 180.73 447.70 180.43 449.83
  Q 179.94 453.30 180.09 457.69
  Q 180.54 470.78 185.10 483.62"></path>
<path stroke="#d65820" vector-effect="non-scaling-stroke" d="
  M 317.82 348.98
  Q 315.87 350.87 312.25 351.29
  Q 308.78 351.69 307.31 352.31
  Q 300.75 355.08 296.14 360.40
  Q 286.63 371.40 286.86 387.03"></path>
<path stroke="#f9ba95" vector-effect="non-scaling-stroke" d="
  M 286.86 387.03
  L 286.79 415.63"></path>
<path stroke="#f9a44f" vector-effect="non-scaling-stroke" d="
  M 286.79 415.63
  Q 286.65 423.11 286.70 430.31
  Q 286.77 439.32 285.47 442.56
  Q 283.10 448.46 276.87 450.36
  Q 274.12 451.20 265.95 451.12
  Q 258.51 451.05 251.25 451.23"></path>
<path stroke="#f9ba95" vector-effect="non-scaling-stroke" d="
  M 251.25 451.23
  L 222.65 451.20"></path>
<path stroke="#d65820" vector-effect="non-scaling-stroke" d="
  M 222.65 451.20
  Q 213.32 451.98 210.93 452.64
  Q 202.51 454.97 195.96 460.72
  Q 186.47 469.06 185.10 483.62"></path>
<path stroke="#dc9d8a" vector-effect="non-scaling-stroke" d="
  M 286.38 515.18
  Q 255.50 514.27 236.68 491.08
  Q 222.96 474.16 222.65 451.20"></path>
<path stroke="#d65820" vector-effect="non-scaling-stroke" d="
  M 388.50 418.83
  Q 387.24 420.61 386.93 423.24
  Q 386.46 427.25 386.32 427.78
  Q 384.14 435.74 377.80 441.33
  Q 366.56 451.24 350.76 450.91"></path>
<path stroke="#dc9d8a" vector-effect="non-scaling-stroke" d="
  M 350.76 450.91
  Q 350.52 448.66 350.39 446.47
  C 348.65 416.76 325.45 392.64 296.52 387.89
  Q 293.88 387.46 286.86 387.03"></path>
<path stroke="#f9ba95" vector-effect="non-scaling-stroke" d="
  M 350.76 450.91
  L 321.96 451.01"></path>
<path stroke="#ffe9b9" vector-effect="non-scaling-stroke" d="
  M 321.96 451.01
  Q 322.23 441.62 317.67 433.84
  Q 307.42 416.36 286.79 415.63"></path>
<path stroke="#f9a44f" vector-effect="non-scaling-stroke" d="
  M 321.96 451.01
  Q 312.57 451.08 303.25 451.09
  C 296.63 451.10 291.51 452.90 288.43 458.52
  Q 286.53 461.99 286.70 467.00
  Q 286.88 472.11 286.57 487.11"></path>
<path stroke="#ffe9b9" vector-effect="non-scaling-stroke" d="
  M 286.57 487.11
  Q 286.22 486.25 284.52 486.41
  Q 283.18 486.54 282.48 486.44
  Q 262.67 483.52 254.22 465.76
  Q 251.12 459.26 251.25 451.23"></path>
<path stroke="#d65820" vector-effect="non-scaling-stroke" d="
  M 251.48 551.89
  Q 264.73 553.04 273.74 545.23
  Q 286.79 533.91 286.38 515.18"></path>
<path stroke="#f9ba95" vector-effect="non-scaling-stroke" d="
  M 286.38 515.18
  L 286.57 487.11"></path>
<path stroke="#808080" vector-effect="non-scaling-stroke" d="
  M 915.70 399.95
  C 924.22 396.19 929.62 390.27 929.79 380.52
  C 930.10 363.81 916.36 356.33 901.50 355.87
  Q 884.77 355.35 872.05 366.63
  Q 871.69 366.95 871.99 367.32
  L 882.15 379.61
  A 0.48 0.48 0.0 0 0 882.84 379.65
  Q 886.43 376.30 890.35 374.36
  C 896.00 371.58 906.92 371.02 908.24 379.53
  Q 909.79 389.57 899.99 392.29
  Q 894.74 393.74 889.13 393.61
  Q 888.50 393.59 888.50 394.21
  L 888.50 408.20
  Q 888.50 408.71 889.02 408.71
  Q 896.10 408.71 901.24 409.79
  C 907.53 411.11 911.68 414.44 911.20 421.36
  Q 910.81 426.98 906.24 429.22
  Q 900.41 432.07 892.75 430.45
  Q 886.45 429.12 879.48 422.84
  Q 879.04 422.45 878.69 422.92
  L 869.56 435.38
  Q 869.23 435.83 869.61 436.25
  C 878.95 446.52 892.72 449.53 906.12 447.87
  C 919.27 446.24 931.45 438.35 932.59 424.47
  Q 933.27 416.15 929.08 410.00
  Q 924.61 403.47 915.76 400.83
  A 0.47 0.47 0.0 0 1 915.70 399.95"></path>
<path stroke="#808080" vector-effect="non-scaling-stroke" d="
  M 432.09 426.41
  A 0.37 0.37 0.0 0 1 432.45 426.13
  L 458.22 426.13
  A 0.37 0.37 0.0 0 1 458.58 426.41
  L 463.59 446.39
  A 0.37 0.37 0.0 0 0 463.95 446.67
  L 485.69 446.67
  A 0.37 0.37 0.0 0 0 486.04 446.19
  L 458.60 357.80
  A 0.37 0.37 0.0 0 0 458.25 357.54
  L 433.13 357.54
  A 0.37 0.37 0.0 0 0 432.78 357.80
  L 405.34 446.19
  A 0.37 0.37 0.0 0 0 405.69 446.67
  L 426.70 446.67
  A 0.37 0.37 0.0 0 0 427.06 446.39
  L 432.09 426.41"></path>
<path stroke="#808080" vector-effect="non-scaling-stroke" d="
  M 654.83 405.86
  Q 657.03 410.10 675.64 446.11
  Q 675.91 446.63 676.49 446.63
  L 697.17 446.63
  Q 697.68 446.63 697.68 446.11
  L 697.68 358.06
  Q 697.68 357.50 697.12 357.50
  L 677.97 357.50
  Q 677.40 357.50 677.40 358.07
  Q 677.14 392.33 677.70 397.75
  Q 678.82 408.63 680.04 419.49
  Q 680.08 419.90 679.68 419.89
  Q 679.45 419.88 679.36 419.66
  Q 674.75 408.96 669.79 398.42
  Q 669.77 398.37 669.72 398.27
  Q 667.52 394.03 648.91 358.02
  Q 648.64 357.50 648.06 357.50
  L 627.38 357.50
  Q 626.87 357.50 626.87 358.02
  L 626.87 446.07
  Q 626.87 446.63 627.43 446.63
  L 646.58 446.63
  Q 647.15 446.63 647.15 446.06
  Q 647.41 411.80 646.85 406.38
  Q 645.73 395.50 644.51 384.64
  Q 644.47 384.23 644.87 384.24
  Q 645.10 384.25 645.19 384.47
  Q 649.80 395.17 654.76 405.71
  Q 654.78 405.76 654.83 405.86"></path>
<path stroke="#808080" vector-effect="non-scaling-stroke" d="
  M 764.50 395.14
  A 0.37 0.37 0.0 0 0 764.13 394.77
  L 734.45 394.77
  A 0.37 0.37 0.0 0 1 734.08 394.40
  L 734.08 375.60
  A 0.37 0.37 0.0 0 1 734.45 375.23
  L 769.17 375.23
  A 0.37 0.37 0.0 0 0 769.54 374.86
  L 769.54 357.88
  A 0.37 0.37 0.0 0 0 769.17 357.51
  L 712.99 357.51
  A 0.37 0.37 0.0 0 0 712.62 357.88
  L 712.62 446.28
  A 0.37 0.37 0.0 0 0 712.99 446.65
  L 733.71 446.65
  A 0.37 0.37 0.0 0 0 734.08 446.28
  L 734.08 412.99
  A 0.37 0.37 0.0 0 1 734.45 412.62
  L 764.13 412.62
  A 0.37 0.37 0.0 0 0 764.50 412.25
  L 764.50 395.14"></path>
<path stroke="#808080" vector-effect="non-scaling-stroke" d="
  M 819.31 446.65
  Q 828.58 446.65 829.68 446.64
  A 0.39 0.38 -90.0 0 0 830.06 446.25
  L 830.06 375.73
  A 0.49 0.49 0.0 0 1 830.55 375.24
  L 853.74 375.24
  Q 854.21 375.24 854.21 374.76
  L 854.21 357.78
  A 0.24 0.24 0.0 0 0 853.97 357.54
  Q 836.69 357.52 819.36 357.51
  Q 802.03 357.50 784.74 357.50
  A 0.24 0.24 0.0 0 0 784.51 357.74
  L 784.49 374.72
  Q 784.49 375.20 784.96 375.20
  L 808.15 375.23
  A 0.49 0.49 0.0 0 1 808.64 375.72
  L 808.56 446.24
  A 0.39 0.38 -89.9 0 0 808.95 446.63
  Q 810.04 446.64 819.31 446.65"></path>
<path stroke="#808080" vector-effect="non-scaling-stroke" d="
  M 947.61 357.89
  L 947.77 446.25
  A 0.39 0.39 0.0 0 0 948.16 446.64
  L 978.39 446.59
  A 40.14 40.11 -0.1 0 0 1018.46 406.41
  L 1018.44 397.49
  A 40.14 40.11 -0.1 0 0 978.23 357.45
  L 948.00 357.50
  A 0.39 0.39 0.0 0 0 947.61 357.89"></path>
<path stroke="#808080" vector-effect="non-scaling-stroke" d="
  M 594.28 392.81
  L 609.20 392.81
  Q 609.71 392.81 609.71 392.30
  L 609.71 376.67
  Q 609.71 376.14 609.17 376.14
  L 594.21 376.14
  Q 593.65 376.14 593.65 375.58
  L 593.65 358.51
  A 0.38 0.37 -90.0 0 0 593.28 358.13
  L 576.40 358.13
  A 0.56 0.56 0.0 0 0 575.85 358.61
  L 573.60 375.62
  Q 573.56 375.92 573.25 375.96
  L 563.58 377.13
  Q 563.10 377.19 563.10 377.68
  L 563.10 392.22
  Q 563.10 392.81 563.69 392.81
  L 571.80 392.81
  Q 572.34 392.81 572.34 393.35
  Q 572.32 405.74 572.34 419.29
  C 572.37 432.17 577.11 443.46 591.26 445.56
  Q 600.44 446.93 611.41 443.59
  Q 611.86 443.45 611.76 442.99
  L 608.67 428.76
  Q 608.57 428.30 608.09 428.38
  Q 607.87 428.42 604.20 429.10
  C 598.49 430.16 594.75 427.16 593.87 421.65
  Q 593.80 421.17 593.71 415.50
  Q 593.52 403.65 593.77 393.31
  Q 593.78 392.81 594.28 392.81"></path>
<path stroke="#808080" vector-effect="non-scaling-stroke" d="
  M 519.93 380.24
  L 518.60 369.36
  Q 518.53 368.81 517.98 368.81
  L 501.58 368.81
  A 0.42 0.42 0.0 0 0 501.16 369.23
  L 501.16 436.58
  Q 501.16 437.00 501.58 437.00
  L 521.99 437.00
  A 0.38 0.38 0.0 0 0 522.37 436.62
  Q 522.36 409.90 522.37 401.26
  Q 522.37 397.64 523.53 395.49
  Q 526.02 390.86 529.49 388.43
  Q 535.39 384.27 543.45 386.77
  Q 544.50 387.09 544.71 386.02
  L 548.04 369.05
  A 0.60 0.59 -75.7 0 0 547.64 368.37
  C 535.59 364.41 526.70 370.44 520.60 380.39
  Q 520.05 381.27 519.93 380.24"></path>
<path stroke="#808080" vector-effect="non-scaling-stroke" d="
  M 748.35 506.20
  C 736.75 499.09 732.45 521.32 743.99 522.08
  Q 745.50 522.18 748.33 520.31
  Q 748.89 519.94 748.97 520.61
  Q 749.16 522.14 751.55 521.65
  Q 752.02 521.56 752.02 521.08
  L 752.02 498.16
  Q 752.02 497.80 751.66 497.80
  L 749.02 497.80
  Q 748.59 497.80 748.59 498.23
  L 748.59 506.06
  Q 748.59 506.34 748.35 506.20"></path>
<path stroke="#808080" vector-effect="non-scaling-stroke" d="
  M 543.96 512.54
  L 543.96 498.48
  Q 543.96 498.00 543.48 498.00
  L 541.05 498.00
  Q 540.60 498.00 540.60 498.45
  L 540.60 521.22
  Q 540.60 521.89 541.28 521.89
  L 543.54 521.89
  A 0.53 0.52 -6.9 0 0 544.05 521.24
  Q 543.13 517.43 546.44 514.80
  Q 546.87 514.46 547.14 514.93
  L 550.75 521.18
  A 1.42 1.41 74.8 0 0 551.97 521.88
  L 554.22 521.88
  Q 554.99 521.88 554.58 521.23
  L 549.07 512.61
  Q 548.88 512.31 549.09 512.02
  L 553.69 505.75
  Q 553.96 505.37 553.50 505.37
  L 551.33 505.37
  Q 550.51 505.37 550.00 506.01
  L 544.56 512.75
  Q 543.96 513.50 543.96 512.54"></path>
<path stroke="#808080" vector-effect="non-scaling-stroke" d="
  M 719.12 500.14
  A 2.09 2.09 0.0 0 0 717.03 498.05
  A 2.09 2.09 0.0 0 0 714.94 500.14
  A 2.09 2.09 0.0 0 0 717.03 502.23
  A 2.09 2.09 0.0 0 0 719.12 500.14"></path>
<path stroke="#808080" vector-effect="non-scaling-stroke" d="
  M 663.27 500.13
  A 2.09 2.09 0.0 0 0 661.18 498.04
  A 2.09 2.09 0.0 0 0 659.09 500.13
  A 2.09 2.09 0.0 0 0 661.18 502.22
  A 2.09 2.09 0.0 0 0 663.27 500.13"></path>
<path stroke="#808080" vector-effect="non-scaling-stroke" d="
  M 798.51 509.18
  Q 802.42 506.71 801.63 503.00
  Q 800.94 499.77 797.66 498.86
  Q 793.00 497.57 788.91 500.94
  Q 788.70 501.12 788.87 501.33
  L 790.38 503.15
  Q 790.52 503.32 790.68 503.17
  Q 793.03 500.86 795.79 501.36
  C 797.43 501.65 798.30 502.95 798.26 504.58
  C 798.20 507.34 795.43 508.28 793.07 508.22
  Q 792.53 508.21 792.53 508.75
  L 792.53 510.28
  Q 792.53 510.94 793.19 510.93
  Q 795.76 510.87 796.86 511.50
  Q 799.49 512.99 799.01 515.43
  C 798.14 519.80 792.57 518.77 790.05 516.53
  Q 789.57 516.10 789.20 516.62
  L 788.28 517.87
  A 0.72 0.72 0.0 0 0 788.43 518.88
  Q 793.42 522.60 798.33 520.72
  C 803.48 518.75 804.27 511.86 798.58 509.77
  Q 797.94 509.54 798.51 509.18"></path>
<path stroke="#808080" vector-effect="non-scaling-stroke" d="
  M 481.79 518.87
  Q 482.20 518.87 482.43 518.81
  A 1.03 0.79 -1.5 0 0 483.11 518.26
  L 488.06 504.48
  Q 488.41 503.52 488.39 504.54
  L 488.08 520.53
  Q 488.07 520.94 488.48 520.94
  L 490.95 520.94
  Q 491.35 520.94 491.35 520.55
  L 491.35 499.44
  Q 491.35 498.87 490.77 498.87
  L 487.95 498.87
  Q 487.39 498.87 487.19 499.39
  Q 484.45 506.83 481.87 514.29
  Q 481.85 514.36 481.80 514.36
  Q 481.75 514.36 481.73 514.29
  Q 479.18 506.82 476.46 499.37
  Q 476.27 498.85 475.71 498.85
  L 472.89 498.84
  Q 472.31 498.84 472.30 499.41
  L 472.23 520.52
  Q 472.23 520.91 472.63 520.91
  L 475.10 520.92
  Q 475.51 520.92 475.50 520.51
  L 475.25 504.52
  Q 475.23 503.50 475.58 504.46
  L 480.48 518.26
  A 1.03 0.79 1.6 0 0 481.16 518.80
  Q 481.39 518.87 481.79 518.87"></path>
<path stroke="#808080" vector-effect="non-scaling-stroke" d="
  M 632.10 520.92
  Q 633.20 520.92 633.64 520.88
  Q 634.20 520.84 634.37 520.30
  L 640.93 499.16
  A 0.23 0.23 0.0 0 0 640.71 498.86
  L 637.71 498.86
  Q 637.44 498.86 637.36 499.12
  L 632.27 517.04
  Q 632.25 517.13 632.17 517.15
  Q 632.14 517.17 632.10 517.17
  Q 632.06 517.17 632.02 517.15
  Q 631.94 517.13 631.92 517.04
  L 626.82 499.12
  Q 626.74 498.86 626.47 498.86
  L 623.47 498.87
  A 0.23 0.23 0.0 0 0 623.25 499.17
  L 629.83 520.30
  Q 630.00 520.84 630.55 520.89
  Q 631.00 520.92 632.10 520.92"></path>
<path stroke="#808080" vector-effect="non-scaling-stroke" d="
  M 820.51 499.22
  L 820.47 520.56
  A 0.38 0.38 0.0 0 0 820.85 520.94
  L 826.79 520.95
  A 9.96 9.71 0.1 0 0 836.77 511.25
  L 836.77 508.57
  A 9.96 9.71 0.1 0 0 826.83 498.85
  L 820.89 498.84
  A 0.38 0.38 0.0 0 0 820.51 499.22"></path>
<path stroke="#808080" vector-effect="non-scaling-stroke" d="
  M 879.60 510.64
  Q 884.37 519.10 885.07 520.30
  Q 885.34 520.75 885.85 520.86
  Q 887.15 521.14 888.41 520.94
  Q 888.95 520.85 888.95 520.31
  L 888.95 499.20
  Q 888.95 498.86 888.61 498.86
  L 885.90 498.86
  Q 885.57 498.86 885.57 499.19
  L 885.90 515.69
  Q 885.91 516.30 885.65 515.77
  Q 883.47 511.52 882.14 509.16
  Q 877.38 500.70 876.67 499.50
  Q 876.41 499.05 875.90 498.94
  Q 874.60 498.66 873.34 498.86
  Q 872.80 498.95 872.80 499.49
  L 872.80 520.60
  Q 872.80 520.94 873.14 520.94
  L 875.85 520.94
  Q 876.18 520.94 876.18 520.61
  L 875.85 504.11
  Q 875.84 503.50 876.10 504.03
  Q 878.27 508.27 879.60 510.64"></path>
<path stroke="#808080" vector-effect="non-scaling-stroke" d="
  M 909.91 520.94
  A 0.49 0.49 0.0 0 0 910.40 520.45
  L 910.40 511.91
  A 0.49 0.49 0.0 0 1 910.89 511.42
  L 918.05 511.42
  A 0.49 0.49 0.0 0 0 918.54 510.93
  L 918.54 509.03
  A 0.49 0.49 0.0 0 0 918.05 508.54
  L 910.89 508.54
  A 0.49 0.49 0.0 0 1 910.40 508.05
  L 910.40 502.29
  A 0.49 0.49 0.0 0 1 910.89 501.80
  L 919.51 501.80
  A 0.49 0.49 0.0 0 0 920.00 501.31
  L 920.00 499.37
  A 0.49 0.49 0.0 0 0 919.51 498.88
  L 907.41 498.88
  A 0.49 0.49 0.0 0 0 906.92 499.37
  L 906.92 520.45
  A 0.49 0.49 0.0 0 0 907.41 520.94
  L 909.91 520.94"></path>
<path stroke="#808080" vector-effect="non-scaling-stroke" d="
  M 946.16 520.92
  Q 947.07 520.92 947.34 520.88
  Q 947.91 520.79 947.91 520.22
  L 947.91 502.43
  Q 947.91 501.80 948.54 501.80
  L 953.80 501.80
  Q 954.41 501.80 954.41 501.19
  L 954.41 499.48
  Q 954.41 498.88 953.81 498.88
  Q 950.60 498.89 946.17 498.88
  Q 941.75 498.88 938.54 498.87
  Q 937.94 498.87 937.94 499.47
  L 937.94 501.18
  Q 937.94 501.79 938.55 501.79
  L 943.81 501.80
  Q 944.44 501.80 944.43 502.43
  L 944.42 520.22
  Q 944.42 520.79 944.98 520.88
  Q 945.25 520.92 946.16 520.92"></path>
<path stroke="#808080" vector-effect="non-scaling-stroke" d="
  M 519.64 517.08
  Q 519.58 517.58 519.75 517.88
  Q 519.89 518.13 520.18 518.13
  L 522.21 518.13
  Q 522.61 518.13 522.61 517.74
  Q 522.71 513.22 522.62 508.83
  C 522.54 504.61 521.40 501.28 516.77 501.30
  Q 513.54 501.31 510.47 503.15
  A 0.59 0.58 60.1 0 0 510.26 503.94
  L 511.09 505.37
  Q 511.37 505.84 511.81 505.53
  Q 513.97 504.02 516.52 504.10
  A 2.67 2.44 78.5 0 1 518.76 505.73
  L 519.02 506.34
  Q 519.59 507.71 518.00 507.84
  C 515.21 508.07 510.48 509.14 509.55 512.50
  C 508.19 517.38 513.19 519.81 517.25 517.67
  Q 518.71 516.90 519.11 516.71
  Q 519.71 516.42 519.64 517.08"></path>
<path stroke="#808080" vector-effect="non-scaling-stroke" d="
  M 576.78 510.81
  L 586.53 510.81
  A 0.57 0.56 -87.2 0 0 587.09 510.30
  C 587.40 506.60 586.29 502.53 582.41 501.54
  C 572.47 499.01 569.20 514.96 578.27 518.06
  Q 582.16 519.39 586.08 517.03
  Q 586.44 516.81 586.30 516.42
  Q 586.01 515.63 585.46 514.95
  Q 585.27 514.73 585.01 514.85
  Q 578.37 517.91 576.29 511.49
  A 0.52 0.52 0.0 0 1 576.78 510.81"></path>
<path stroke="#808080" vector-effect="non-scaling-stroke" d="
  M 689.20 518.13
  Q 690.44 518.13 690.62 518.12
  Q 691.21 518.08 691.38 517.60
  L 696.81 501.94
  A 0.22 0.22 0.0 0 0 696.60 501.65
  L 693.71 501.65
  Q 693.46 501.65 693.39 501.89
  L 689.33 515.09
  Q 689.32 515.13 689.24 515.14
  Q 689.22 515.15 689.20 515.15
  Q 689.17 515.15 689.15 515.14
  Q 689.07 515.13 689.06 515.09
  L 684.92 501.91
  Q 684.85 501.68 684.60 501.68
  L 681.71 501.69
  A 0.22 0.22 0.0 0 0 681.50 501.98
  L 687.02 517.61
  Q 687.20 518.09 687.79 518.13
  Q 687.97 518.14 689.20 518.13"></path>
<path stroke="#808080" vector-effect="non-scaling-stroke" d="
  M 662.88 505.65
  A 0.37 0.37 0.0 0 0 662.51 505.28
  L 659.83 505.28
  A 0.37 0.37 0.0 0 0 659.46 505.65
  L 659.46 521.37
  A 0.37 0.37 0.0 0 0 659.83 521.74
  L 662.51 521.74
  A 0.37 0.37 0.0 0 0 662.88 521.37
  L 662.88 505.65"></path>
<path stroke="#808080" vector-effect="non-scaling-stroke" d="
  M 718.73 505.60
  A 0.32 0.32 0.0 0 0 718.41 505.28
  L 715.65 505.28
  A 0.32 0.32 0.0 0 0 715.33 505.60
  L 715.33 521.40
  A 0.32 0.32 0.0 0 0 715.65 521.72
  L 718.41 521.72
  A 0.32 0.32 0.0 0 0 718.73 521.40
  L 718.73 505.60"></path>
<path stroke="#808080" vector-effect="non-scaling-stroke" d="
  M 436.42 409.24
  A 0.32 0.32 0.0 0 0 436.74 409.64
  L 453.97 409.58
  A 0.32 0.32 0.0 0 0 454.28 409.18
  L 445.54 373.96
  A 0.32 0.32 0.0 0 0 444.92 373.96
  L 436.42 409.24"></path>
<path stroke="#808080" vector-effect="non-scaling-stroke" d="
  M 969.28 374.76
  L 969.00 428.94
  A 0.35 0.35 0.0 0 0 969.35 429.29
  L 974.76 429.32
  A 22.74 21.54 -89.7 0 0 996.42 406.69
  L 996.46 397.29
  A 22.74 21.54 -89.7 0 0 975.04 374.44
  L 969.63 374.41
  A 0.35 0.35 0.0 0 0 969.28 374.76"></path>
<path stroke="#808080" vector-effect="non-scaling-stroke" d="
  M 748.7082 511.2975
  A 3.54 3.54 0.0 0 0 745.2495 507.6780
  L 744.6696 507.6649
  A 3.54 3.54 0.0 0 0 741.0502 511.1237
  L 740.9518 515.4625
  A 3.54 3.54 0.0 0 0 744.4105 519.0820
  L 744.9904 519.0951
  A 3.54 3.54 0.0 0 0 748.6098 515.6363
  L 748.7082 511.2975"></path>
<path stroke="#808080" vector-effect="non-scaling-stroke" d="
  M 823.96 502.04
  L 823.94 517.68
  A 0.39 0.39 0.0 0 0 824.33 518.07
  L 826.40 518.08
  A 6.95 6.78 -89.9 0 0 833.19 511.14
  L 833.19 508.62
  A 6.95 6.78 -89.9 0 0 826.42 501.66
  L 824.35 501.65
  A 0.39 0.39 0.0 0 0 823.96 502.04"></path>
<path stroke="#808080" vector-effect="non-scaling-stroke" d="
  M 518.67 509.93
  C 516.56 510.68 512.34 510.54 512.72 513.95
  A 1.95 1.95 0.0 0 0 514.26 515.64
  Q 516.75 516.16 518.87 514.17
  Q 519.21 513.86 519.21 513.41
  L 519.21 510.30
  Q 519.21 509.73 518.67 509.93"></path>
<path stroke="#808080" vector-effect="non-scaling-stroke" d="
  M 576.79 508.50
  L 583.93 508.42
  A 0.27 0.27 0.0 0 0 584.20 508.15
  L 584.20 507.86
  A 3.90 3.74 89.4 0 0 580.42 504.00
  L 580.22 504.00
  A 3.90 3.74 89.4 0 0 576.52 507.94
  L 576.52 508.23
  A 0.27 0.27 0.0 0 0 576.79 508.50"></path>
</g>
<path fill="#ffffff" d="
  M 1200.00 0.00
  L 1200.00 900.00
  L 0.00 900.00
  L 0.00 0.00
  L 1200.00 0.00
  Z
  M 185.10 483.62
  Q 195.17 514.94 221.34 535.42
  Q 234.70 545.88 251.48 551.89
  Q 267.15 557.83 283.89 557.67
  Q 285.36 557.66 287.57 557.37
  C 290.63 556.97 294.24 556.91 296.76 556.39
  C 312.01 553.25 324.14 540.43 327.96 525.76
  Q 329.41 520.23 329.35 510.13
  Q 329.29 501.34 329.34 494.39
  A 0.62 0.62 0.0 0 1 329.96 493.78
  Q 337.26 493.82 344.99 493.78
  Q 355.25 493.73 359.94 492.70
  C 376.75 489.01 391.39 474.28 392.54 456.54
  Q 392.65 454.75 392.89 452.40
  Q 393.25 448.70 393.22 446.15
  Q 393.05 432.18 388.50 418.83
  Q 369.95 366.55 317.82 348.98
  C 309.90 346.06 301.23 345.02 292.84 344.58
  Q 289.22 344.39 287.15 344.70
  Q 284.13 345.14 281.49 345.29
  C 263.95 346.29 249.67 360.19 245.39 376.52
  Q 243.94 382.05 243.97 392.07
  Q 243.99 399.24 243.99 407.77
  A 0.80 0.79 -90.0 0 1 243.20 408.57
  Q 232.77 408.55 228.20 408.51
  Q 218.31 408.42 213.23 409.57
  Q 198.17 413.00 188.45 425.72
  C 184.59 430.77 181.25 438.00 180.89 444.59
  Q 180.73 447.70 180.43 449.83
  Q 179.94 453.30 180.09 457.69
  Q 180.54 470.78 185.10 483.62
  Z
  M 915.70 399.95
  C 924.22 396.19 929.62 390.27 929.79 380.52
  C 930.10 363.81 916.36 356.33 901.50 355.87
  Q 884.77 355.35 872.05 366.63
  Q 871.69 366.95 871.99 367.32
  L 882.15 379.61
  A 0.48 0.48 0.0 0 0 882.84 379.65
  Q 886.43 376.30 890.35 374.36
  C 896.00 371.58 906.92 371.02 908.24 379.53
  Q 909.79 389.57 899.99 392.29
  Q 894.74 393.74 889.13 393.61
  Q 888.50 393.59 888.50 394.21
  L 888.50 408.20
  Q 888.50 408.71 889.02 408.71
  Q 896.10 408.71 901.24 409.79
  C 907.53 411.11 911.68 414.44 911.20 421.36
  Q 910.81 426.98 906.24 429.22
  Q 900.41 432.07 892.75 430.45
  Q 886.45 429.12 879.48 422.84
  Q 879.04 422.45 878.69 422.92
  L 869.56 435.38
  Q 869.23 435.83 869.61 436.25
  C 878.95 446.52 892.72 449.53 906.12 447.87
  C 919.27 446.24 931.45 438.35 932.59 424.47
  Q 933.27 416.15 929.08 410.00
  Q 924.61 403.47 915.76 400.83
  A 0.47 0.47 0.0 0 1 915.70 399.95
  Z
  M 432.09 426.41
  A 0.37 0.37 0.0 0 1 432.45 426.13
  L 458.22 426.13
  A 0.37 0.37 0.0 0 1 458.58 426.41
  L 463.59 446.39
  A 0.37 0.37 0.0 0 0 463.95 446.67
  L 485.69 446.67
  A 0.37 0.37 0.0 0 0 486.04 446.19
  L 458.60 357.80
  A 0.37 0.37 0.0 0 0 458.25 357.54
  L 433.13 357.54
  A 0.37 0.37 0.0 0 0 432.78 357.80
  L 405.34 446.19
  A 0.37 0.37 0.0 0 0 405.69 446.67
  L 426.70 446.67
  A 0.37 0.37 0.0 0 0 427.06 446.39
  L 432.09 426.41
  Z
  M 654.83 405.86
  Q 657.03 410.10 675.64 446.11
  Q 675.91 446.63 676.49 446.63
  L 697.17 446.63
  Q 697.68 446.63 697.68 446.11
  L 697.68 358.06
  Q 697.68 357.50 697.12 357.50
  L 677.97 357.50
  Q 677.40 357.50 677.40 358.07
  Q 677.14 392.33 677.70 397.75
  Q 678.82 408.63 680.04 419.49
  Q 680.08 419.90 679.68 419.89
  Q 679.45 419.88 679.36 419.66
  Q 674.75 408.96 669.79 398.42
  Q 669.77 398.37 669.72 398.27
  Q 667.52 394.03 648.91 358.02
  Q 648.64 357.50 648.06 357.50
  L 627.38 357.50
  Q 626.87 357.50 626.87 358.02
  L 626.87 446.07
  Q 626.87 446.63 627.43 446.63
  L 646.58 446.63
  Q 647.15 446.63 647.15 446.06
  Q 647.41 411.80 646.85 406.38
  Q 645.73 395.50 644.51 384.64
  Q 644.47 384.23 644.87 384.24
  Q 645.10 384.25 645.19 384.47
  Q 649.80 395.17 654.76 405.71
  Q 654.78 405.76 654.83 405.86
  Z
  M 764.50 395.14
  A 0.37 0.37 0.0 0 0 764.13 394.77
  L 734.45 394.77
  A 0.37 0.37 0.0 0 1 734.08 394.40
  L 734.08 375.60
  A 0.37 0.37 0.0 0 1 734.45 375.23
  L 769.17 375.23
  A 0.37 0.37 0.0 0 0 769.54 374.86
  L 769.54 357.88
  A 0.37 0.37 0.0 0 0 769.17 357.51
  L 712.99 357.51
  A 0.37 0.37 0.0 0 0 712.62 357.88
  L 712.62 446.28
  A 0.37 0.37 0.0 0 0 712.99 446.65
  L 733.71 446.65
  A 0.37 0.37 0.0 0 0 734.08 446.28
  L 734.08 412.99
  A 0.37 0.37 0.0 0 1 734.45 412.62
  L 764.13 412.62
  A 0.37 0.37 0.0 0 0 764.50 412.25
  L 764.50 395.14
  Z
  M 819.31 446.65
  Q 828.58 446.65 829.68 446.64
  A 0.39 0.38 -90.0 0 0 830.06 446.25
  L 830.06 375.73
  A 0.49 0.49 0.0 0 1 830.55 375.24
  L 853.74 375.24
  Q 854.21 375.24 854.21 374.76
  L 854.21 357.78
  A 0.24 0.24 0.0 0 0 853.97 357.54
  Q 836.69 357.52 819.36 357.51
  Q 802.03 357.50 784.74 357.50
  A 0.24 0.24 0.0 0 0 784.51 357.74
  L 784.49 374.72
  Q 784.49 375.20 784.96 375.20
  L 808.15 375.23
  A 0.49 0.49 0.0 0 1 808.64 375.72
  L 808.56 446.24
  A 0.39 0.38 -89.9 0 0 808.95 446.63
  Q 810.04 446.64 819.31 446.65
  Z
  M 947.61 357.89
  L 947.77 446.25
  A 0.39 0.39 0.0 0 0 948.16 446.64
  L 978.39 446.59
  A 40.14 40.11 -0.1 0 0 1018.46 406.41
  L 1018.44 397.49
  A 40.14 40.11 -0.1 0 0 978.23 357.45
  L 948.00 357.50
  A 0.39 0.39 0.0 0 0 947.61 357.89
  Z
  M 594.28 392.81
  L 609.20 392.81
  Q 609.71 392.81 609.71 392.30
  L 609.71 376.67
  Q 609.71 376.14 609.17 376.14
  L 594.21 376.14
  Q 593.65 376.14 593.65 375.58
  L 593.65 358.51
  A 0.38 0.37 -90.0 0 0 593.28 358.13
  L 576.40 358.13
  A 0.56 0.56 0.0 0 0 575.85 358.61
  L 573.60 375.62
  Q 573.56 375.92 573.25 375.96
  L 563.58 377.13
  Q 563.10 377.19 563.10 377.68
  L 563.10 392.22
  Q 563.10 392.81 563.69 392.81
  L 571.80 392.81
  Q 572.34 392.81 572.34 393.35
  Q 572.32 405.74 572.34 419.29
  C 572.37 432.17 577.11 443.46 591.26 445.56
  Q 600.44 446.93 611.41 443.59
  Q 611.86 443.45 611.76 442.99
  L 608.67 428.76
  Q 608.57 428.30 608.09 428.38
  Q 607.87 428.42 604.20 429.10
  C 598.49 430.16 594.75 427.16 593.87 421.65
  Q 593.80 421.17 593.71 415.50
  Q 593.52 403.65 593.77 393.31
  Q 593.78 392.81 594.28 392.81
  Z
  M 519.93 380.24
  L 518.60 369.36
  Q 518.53 368.81 517.98 368.81
  L 501.58 368.81
  A 0.42 0.42 0.0 0 0 501.16 369.23
  L 501.16 436.58
  Q 501.16 437.00 501.58 437.00
  L 521.99 437.00
  A 0.38 0.38 0.0 0 0 522.37 436.62
  Q 522.36 409.90 522.37 401.26
  Q 522.37 397.64 523.53 395.49
  Q 526.02 390.86 529.49 388.43
  Q 535.39 384.27 543.45 386.77
  Q 544.50 387.09 544.71 386.02
  L 548.04 369.05
  A 0.60 0.59 -75.7 0 0 547.64 368.37
  C 535.59 364.41 526.70 370.44 520.60 380.39
  Q 520.05 381.27 519.93 380.24
  Z
  M 748.35 506.20
  C 736.75 499.09 732.45 521.32 743.99 522.08
  Q 745.50 522.18 748.33 520.31
  Q 748.89 519.94 748.97 520.61
  Q 749.16 522.14 751.55 521.65
  Q 752.02 521.56 752.02 521.08
  L 752.02 498.16
  Q 752.02 497.80 751.66 497.80
  L 749.02 497.80
  Q 748.59 497.80 748.59 498.23
  L 748.59 506.06
  Q 748.59 506.34 748.35 506.20
  Z
  M 543.96 512.54
  L 543.96 498.48
  Q 543.96 498.00 543.48 498.00
  L 541.05 498.00
  Q 540.60 498.00 540.60 498.45
  L 540.60 521.22
  Q 540.60 521.89 541.28 521.89
  L 543.54 521.89
  A 0.53 0.52 -6.9 0 0 544.05 521.24
  Q 543.13 517.43 546.44 514.80
  Q 546.87 514.46 547.14 514.93
  L 550.75 521.18
  A 1.42 1.41 74.8 0 0 551.97 521.88
  L 554.22 521.88
  Q 554.99 521.88 554.58 521.23
  L 549.07 512.61
  Q 548.88 512.31 549.09 512.02
  L 553.69 505.75
  Q 553.96 505.37 553.50 505.37
  L 551.33 505.37
  Q 550.51 505.37 550.00 506.01
  L 544.56 512.75
  Q 543.96 513.50 543.96 512.54
  Z
  M 719.12 500.14
  A 2.09 2.09 0.0 0 0 717.03 498.05
  A 2.09 2.09 0.0 0 0 714.94 500.14
  A 2.09 2.09 0.0 0 0 717.03 502.23
  A 2.09 2.09 0.0 0 0 719.12 500.14
  Z
  M 663.27 500.13
  A 2.09 2.09 0.0 0 0 661.18 498.04
  A 2.09 2.09 0.0 0 0 659.09 500.13
  A 2.09 2.09 0.0 0 0 661.18 502.22
  A 2.09 2.09 0.0 0 0 663.27 500.13
  Z
  M 798.51 509.18
  Q 802.42 506.71 801.63 503.00
  Q 800.94 499.77 797.66 498.86
  Q 793.00 497.57 788.91 500.94
  Q 788.70 501.12 788.87 501.33
  L 790.38 503.15
  Q 790.52 503.32 790.68 503.17
  Q 793.03 500.86 795.79 501.36
  C 797.43 501.65 798.30 502.95 798.26 504.58
  C 798.20 507.34 795.43 508.28 793.07 508.22
  Q 792.53 508.21 792.53 508.75
  L 792.53 510.28
  Q 792.53 510.94 793.19 510.93
  Q 795.76 510.87 796.86 511.50
  Q 799.49 512.99 799.01 515.43
  C 798.14 519.80 792.57 518.77 790.05 516.53
  Q 789.57 516.10 789.20 516.62
  L 788.28 517.87
  A 0.72 0.72 0.0 0 0 788.43 518.88
  Q 793.42 522.60 798.33 520.72
  C 803.48 518.75 804.27 511.86 798.58 509.77
  Q 797.94 509.54 798.51 509.18
  Z
  M 481.79 518.87
  Q 482.20 518.87 482.43 518.81
  A 1.03 0.79 -1.5 0 0 483.11 518.26
  L 488.06 504.48
  Q 488.41 503.52 488.39 504.54
  L 488.08 520.53
  Q 488.07 520.94 488.48 520.94
  L 490.95 520.94
  Q 491.35 520.94 491.35 520.55
  L 491.35 499.44
  Q 491.35 498.87 490.77 498.87
  L 487.95 498.87
  Q 487.39 498.87 487.19 499.39
  Q 484.45 506.83 481.87 514.29
  Q 481.85 514.36 481.80 514.36
  Q 481.75 514.36 481.73 514.29
  Q 479.18 506.82 476.46 499.37
  Q 476.27 498.85 475.71 498.85
  L 472.89 498.84
  Q 472.31 498.84 472.30 499.41
  L 472.23 520.52
  Q 472.23 520.91 472.63 520.91
  L 475.10 520.92
  Q 475.51 520.92 475.50 520.51
  L 475.25 504.52
  Q 475.23 503.50 475.58 504.46
  L 480.48 518.26
  A 1.03 0.79 1.6 0 0 481.16 518.80
  Q 481.39 518.87 481.79 518.87
  Z
  M 632.10 520.92
  Q 633.20 520.92 633.64 520.88
  Q 634.20 520.84 634.37 520.30
  L 640.93 499.16
  A 0.23 0.23 0.0 0 0 640.71 498.86
  L 637.71 498.86
  Q 637.44 498.86 637.36 499.12
  L 632.27 517.04
  Q 632.25 517.13 632.17 517.15
  Q 632.14 517.17 632.10 517.17
  Q 632.06 517.17 632.02 517.15
  Q 631.94 517.13 631.92 517.04
  L 626.82 499.12
  Q 626.74 498.86 626.47 498.86
  L 623.47 498.87
  A 0.23 0.23 0.0 0 0 623.25 499.17
  L 629.83 520.30
  Q 630.00 520.84 630.55 520.89
  Q 631.00 520.92 632.10 520.92
  Z
  M 820.51 499.22
  L 820.47 520.56
  A 0.38 0.38 0.0 0 0 820.85 520.94
  L 826.79 520.95
  A 9.96 9.71 0.1 0 0 836.77 511.25
  L 836.77 508.57
  A 9.96 9.71 0.1 0 0 826.83 498.85
  L 820.89 498.84
  A 0.38 0.38 0.0 0 0 820.51 499.22
  Z
  M 879.60 510.64
  Q 884.37 519.10 885.07 520.30
  Q 885.34 520.75 885.85 520.86
  Q 887.15 521.14 888.41 520.94
  Q 888.95 520.85 888.95 520.31
  L 888.95 499.20
  Q 888.95 498.86 888.61 498.86
  L 885.90 498.86
  Q 885.57 498.86 885.57 499.19
  L 885.90 515.69
  Q 885.91 516.30 885.65 515.77
  Q 883.47 511.52 882.14 509.16
  Q 877.38 500.70 876.67 499.50
  Q 876.41 499.05 875.90 498.94
  Q 874.60 498.66 873.34 498.86
  Q 872.80 498.95 872.80 499.49
  L 872.80 520.60
  Q 872.80 520.94 873.14 520.94
  L 875.85 520.94
  Q 876.18 520.94 876.18 520.61
  L 875.85 504.11
  Q 875.84 503.50 876.10 504.03
  Q 878.27 508.27 879.60 510.64
  Z
  M 909.91 520.94
  A 0.49 0.49 0.0 0 0 910.40 520.45
  L 910.40 511.91
  A 0.49 0.49 0.0 0 1 910.89 511.42
  L 918.05 511.42
  A 0.49 0.49 0.0 0 0 918.54 510.93
  L 918.54 509.03
  A 0.49 0.49 0.0 0 0 918.05 508.54
  L 910.89 508.54
  A 0.49 0.49 0.0 0 1 910.40 508.05
  L 910.40 502.29
  A 0.49 0.49 0.0 0 1 910.89 501.80
  L 919.51 501.80
  A 0.49 0.49 0.0 0 0 920.00 501.31
  L 920.00 499.37
  A 0.49 0.49 0.0 0 0 919.51 498.88
  L 907.41 498.88
  A 0.49 0.49 0.0 0 0 906.92 499.37
  L 906.92 520.45
  A 0.49 0.49 0.0 0 0 907.41 520.94
  L 909.91 520.94
  Z
  M 946.16 520.92
  Q 947.07 520.92 947.34 520.88
  Q 947.91 520.79 947.91 520.22
  L 947.91 502.43
  Q 947.91 501.80 948.54 501.80
  L 953.80 501.80
  Q 954.41 501.80 954.41 501.19
  L 954.41 499.48
  Q 954.41 498.88 953.81 498.88
  Q 950.60 498.89 946.17 498.88
  Q 941.75 498.88 938.54 498.87
  Q 937.94 498.87 937.94 499.47
  L 937.94 501.18
  Q 937.94 501.79 938.55 501.79
  L 943.81 501.80
  Q 944.44 501.80 944.43 502.43
  L 944.42 520.22
  Q 944.42 520.79 944.98 520.88
  Q 945.25 520.92 946.16 520.92
  Z
  M 519.64 517.08
  Q 519.58 517.58 519.75 517.88
  Q 519.89 518.13 520.18 518.13
  L 522.21 518.13
  Q 522.61 518.13 522.61 517.74
  Q 522.71 513.22 522.62 508.83
  C 522.54 504.61 521.40 501.28 516.77 501.30
  Q 513.54 501.31 510.47 503.15
  A 0.59 0.58 60.1 0 0 510.26 503.94
  L 511.09 505.37
  Q 511.37 505.84 511.81 505.53
  Q 513.97 504.02 516.52 504.10
  A 2.67 2.44 78.5 0 1 518.76 505.73
  L 519.02 506.34
  Q 519.59 507.71 518.00 507.84
  C 515.21 508.07 510.48 509.14 509.55 512.50
  C 508.19 517.38 513.19 519.81 517.25 517.67
  Q 518.71 516.90 519.11 516.71
  Q 519.71 516.42 519.64 517.08
  Z
  M 576.78 510.81
  L 586.53 510.81
  A 0.57 0.56 -87.2 0 0 587.09 510.30
  C 587.40 506.60 586.29 502.53 582.41 501.54
  C 572.47 499.01 569.20 514.96 578.27 518.06
  Q 582.16 519.39 586.08 517.03
  Q 586.44 516.81 586.30 516.42
  Q 586.01 515.63 585.46 514.95
  Q 585.27 514.73 585.01 514.85
  Q 578.37 517.91 576.29 511.49
  A 0.52 0.52 0.0 0 1 576.78 510.81
  Z
  M 689.20 518.13
  Q 690.44 518.13 690.62 518.12
  Q 691.21 518.08 691.38 517.60
  L 696.81 501.94
  A 0.22 0.22 0.0 0 0 696.60 501.65
  L 693.71 501.65
  Q 693.46 501.65 693.39 501.89
  L 689.33 515.09
  Q 689.32 515.13 689.24 515.14
  Q 689.22 515.15 689.20 515.15
  Q 689.17 515.15 689.15 515.14
  Q 689.07 515.13 689.06 515.09
  L 684.92 501.91
  Q 684.85 501.68 684.60 501.68
  L 681.71 501.69
  A 0.22 0.22 0.0 0 0 681.50 501.98
  L 687.02 517.61
  Q 687.20 518.09 687.79 518.13
  Q 687.97 518.14 689.20 518.13
  Z
  M 662.88 505.65
  A 0.37 0.37 0.0 0 0 662.51 505.28
  L 659.83 505.28
  A 0.37 0.37 0.0 0 0 659.46 505.65
  L 659.46 521.37
  A 0.37 0.37 0.0 0 0 659.83 521.74
  L 662.51 521.74
  A 0.37 0.37 0.0 0 0 662.88 521.37
  L 662.88 505.65
  Z
  M 718.73 505.60
  A 0.32 0.32 0.0 0 0 718.41 505.28
  L 715.65 505.28
  A 0.32 0.32 0.0 0 0 715.33 505.60
  L 715.33 521.40
  A 0.32 0.32 0.0 0 0 715.65 521.72
  L 718.41 521.72
  A 0.32 0.32 0.0 0 0 718.73 521.40
  L 718.73 505.60
  Z"></path>
<path fill="#f3752b" d="
  M 317.82 348.98
  Q 315.87 350.87 312.25 351.29
  Q 308.78 351.69 307.31 352.31
  Q 300.75 355.08 296.14 360.40
  Q 286.63 371.40 286.86 387.03
  L 286.79 415.63
  Q 286.65 423.11 286.70 430.31
  Q 286.77 439.32 285.47 442.56
  Q 283.10 448.46 276.87 450.36
  Q 274.12 451.20 265.95 451.12
  Q 258.51 451.05 251.25 451.23
  L 222.65 451.20
  Q 213.32 451.98 210.93 452.64
  Q 202.51 454.97 195.96 460.72
  Q 186.47 469.06 185.10 483.62
  Q 180.54 470.78 180.09 457.69
  Q 179.94 453.30 180.43 449.83
  Q 180.73 447.70 180.89 444.59
  C 181.25 438.00 184.59 430.77 188.45 425.72
  Q 198.17 413.00 213.23 409.57
  Q 218.31 408.42 228.20 408.51
  Q 232.77 408.55 243.20 408.57
  A 0.80 0.79 90.0 0 0 243.99 407.77
  Q 243.99 399.24 243.97 392.07
  Q 243.94 382.05 245.39 376.52
  C 249.67 360.19 263.95 346.29 281.49 345.29
  Q 284.13 345.14 287.15 344.70
  Q 289.22 344.39 292.84 344.58
  C 301.23 345.02 309.90 346.06 317.82 348.98
  Z"></path>
<path fill="#b83a14" d="
  M 317.82 348.98
  Q 369.95 366.55 388.50 418.83
  Q 387.24 420.61 386.93 423.24
  Q 386.46 427.25 386.32 427.78
  Q 384.14 435.74 377.80 441.33
  Q 366.56 451.24 350.76 450.91
  Q 350.52 448.66 350.39 446.47
  C 348.65 416.76 325.45 392.64 296.52 387.89
  Q 293.88 387.46 286.86 387.03
  Q 286.63 371.40 296.14 360.40
  Q 300.75 355.08 307.31 352.31
  Q 308.78 351.69 312.25 351.29
  Q 315.87 350.87 317.82 348.98
  Z"></path>
<path fill="#000000" d="
  M 915.70 399.95
  A 0.47 0.47 0.0 0 0 915.76 400.83
  Q 924.61 403.47 929.08 410.00
  Q 933.27 416.15 932.59 424.47
  C 931.45 438.35 919.27 446.24 906.12 447.87
  C 892.72 449.53 878.95 446.52 869.61 436.25
  Q 869.23 435.83 869.56 435.38
  L 878.69 422.92
  Q 879.04 422.45 879.48 422.84
  Q 886.45 429.12 892.75 430.45
  Q 900.41 432.07 906.24 429.22
  Q 910.81 426.98 911.20 421.36
  C 911.68 414.44 907.53 411.11 901.24 409.79
  Q 896.10 408.71 889.02 408.71
  Q 888.50 408.71 888.50 408.20
  L 888.50 394.21
  Q 888.50 393.59 889.13 393.61
  Q 894.74 393.74 899.99 392.29
  Q 909.79 389.57 908.24 379.53
  C 906.92 371.02 896.00 371.58 890.35 374.36
  Q 886.43 376.30 882.84 379.65
  A 0.48 0.48 0.0 0 1 882.15 379.61
  L 871.99 367.32
  Q 871.69 366.95 872.05 366.63
  Q 884.77 355.35 901.50 355.87
  C 916.36 356.33 930.10 363.81 929.79 380.52
  C 929.62 390.27 924.22 396.19 915.70 399.95
  Z"></path>
<path fill="#000000" d="
  M 432.09 426.41
  L 427.06 446.39
  A 0.37 0.37 0.0 0 1 426.70 446.67
  L 405.69 446.67
  A 0.37 0.37 0.0 0 1 405.34 446.19
  L 432.78 357.80
  A 0.37 0.37 0.0 0 1 433.13 357.54
  L 458.25 357.54
  A 0.37 0.37 0.0 0 1 458.60 357.80
  L 486.04 446.19
  A 0.37 0.37 0.0 0 1 485.69 446.67
  L 463.95 446.67
  A 0.37 0.37 0.0 0 1 463.59 446.39
  L 458.58 426.41
  A 0.37 0.37 0.0 0 0 458.22 426.13
  L 432.45 426.13
  A 0.37 0.37 0.0 0 0 432.09 426.41
  Z
  M 436.42 409.24
  A 0.32 0.32 0.0 0 0 436.74 409.64
  L 453.97 409.58
  A 0.32 0.32 0.0 0 0 454.28 409.18
  L 445.54 373.96
  A 0.32 0.32 0.0 0 0 444.92 373.96
  L 436.42 409.24
  Z"></path>
<path fill="#000000" d="
  M 669.72 398.27
  Q 669.77 398.37 669.79 398.42
  Q 674.75 408.96 679.36 419.66
  Q 679.45 419.88 679.68 419.89
  Q 680.08 419.90 680.04 419.49
  Q 678.82 408.63 677.70 397.75
  Q 677.14 392.33 677.40 358.07
  Q 677.40 357.50 677.97 357.50
  L 697.12 357.50
  Q 697.68 357.50 697.68 358.06
  L 697.68 446.11
  Q 697.68 446.63 697.17 446.63
  L 676.49 446.63
  Q 675.91 446.63 675.64 446.11
  Q 657.03 410.10 654.83 405.86
  Q 654.78 405.76 654.76 405.71
  Q 649.80 395.17 645.19 384.47
  Q 645.10 384.25 644.87 384.24
  Q 644.47 384.23 644.51 384.64
  Q 645.73 395.50 646.85 406.38
  Q 647.41 411.80 647.15 446.06
  Q 647.15 446.63 646.58 446.63
  L 627.43 446.63
  Q 626.87 446.63 626.87 446.07
  L 626.87 358.02
  Q 626.87 357.50 627.38 357.50
  L 648.06 357.50
  Q 648.64 357.50 648.91 358.02
  Q 667.52 394.03 669.72 398.27
  Z"></path>
<path fill="#000000" d="
  M 764.50 395.14
  L 764.50 412.25
  A 0.37 0.37 0.0 0 1 764.13 412.62
  L 734.45 412.62
  A 0.37 0.37 0.0 0 0 734.08 412.99
  L 734.08 446.28
  A 0.37 0.37 0.0 0 1 733.71 446.65
  L 712.99 446.65
  A 0.37 0.37 0.0 0 1 712.62 446.28
  L 712.62 357.88
  A 0.37 0.37 0.0 0 1 712.99 357.51
  L 769.17 357.51
  A 0.37 0.37 0.0 0 1 769.54 357.88
  L 769.54 374.86
  A 0.37 0.37 0.0 0 1 769.17 375.23
  L 734.45 375.23
  A 0.37 0.37 0.0 0 0 734.08 375.60
  L 734.08 394.40
  A 0.37 0.37 0.0 0 0 734.45 394.77
  L 764.13 394.77
  A 0.37 0.37 0.0 0 1 764.50 395.14
  Z"></path>
<path fill="#000000" d="
  M 819.36 357.51
  Q 836.69 357.52 853.97 357.54
  A 0.24 0.24 0.0 0 1 854.21 357.78
  L 854.21 374.76
  Q 854.21 375.24 853.74 375.24
  L 830.55 375.24
  A 0.49 0.49 0.0 0 0 830.06 375.73
  L 830.06 446.25
  A 0.39 0.38 -90.0 0 1 829.68 446.64
  Q 828.58 446.65 819.31 446.65
  Q 810.04 446.64 808.95 446.63
  A 0.39 0.38 -89.9 0 1 808.56 446.24
  L 808.64 375.72
  A 0.49 0.49 0.0 0 0 808.15 375.23
  L 784.96 375.20
  Q 784.49 375.20 784.49 374.72
  L 784.51 357.74
  A 0.24 0.24 0.0 0 1 784.74 357.50
  Q 802.03 357.50 819.36 357.51
  Z"></path>
<path fill="#000000" d="
  M 947.61 357.89
  A 0.39 0.39 0.0 0 1 948.00 357.50
  L 978.23 357.45
  A 40.14 40.11 -0.1 0 1 1018.44 397.49
  L 1018.46 406.41
  A 40.14 40.11 -0.1 0 1 978.39 446.59
  L 948.16 446.64
  A 0.39 0.39 0.0 0 1 947.77 446.25
  L 947.61 357.89
  Z
  M 969.28 374.76
  L 969.00 428.94
  A 0.35 0.35 0.0 0 0 969.35 429.29
  L 974.76 429.32
  A 22.74 21.54 -89.7 0 0 996.42 406.69
  L 996.46 397.29
  A 22.74 21.54 -89.7 0 0 975.04 374.44
  L 969.63 374.41
  A 0.35 0.35 0.0 0 0 969.28 374.76
  Z"></path>
<path fill="#000000" d="
  M 593.77 393.31
  Q 593.52 403.65 593.71 415.50
  Q 593.80 421.17 593.87 421.65
  C 594.75 427.16 598.49 430.16 604.20 429.10
  Q 607.87 428.42 608.09 428.38
  Q 608.57 428.30 608.67 428.76
  L 611.76 442.99
  Q 611.86 443.45 611.41 443.59
  Q 600.44 446.93 591.26 445.56
  C 577.11 443.46 572.37 432.17 572.34 419.29
  Q 572.32 405.74 572.34 393.35
  Q 572.34 392.81 571.80 392.81
  L 563.69 392.81
  Q 563.10 392.81 563.10 392.22
  L 563.10 377.68
  Q 563.10 377.19 563.58 377.13
  L 573.25 375.96
  Q 573.56 375.92 573.60 375.62
  L 575.85 358.61
  A 0.56 0.56 0.0 0 1 576.40 358.13
  L 593.28 358.13
  A 0.38 0.37 90.0 0 1 593.65 358.51
  L 593.65 375.58
  Q 593.65 376.14 594.21 376.14
  L 609.17 376.14
  Q 609.71 376.14 609.71 376.67
  L 609.71 392.30
  Q 609.71 392.81 609.20 392.81
  L 594.28 392.81
  Q 593.78 392.81 593.77 393.31
  Z"></path>
<path fill="#000000" d="
  M 519.93 380.24
  Q 520.05 381.27 520.60 380.39
  C 526.70 370.44 535.59 364.41 547.64 368.37
  A 0.60 0.59 -75.7 0 1 548.04 369.05
  L 544.71 386.02
  Q 544.50 387.09 543.45 386.77
  Q 535.39 384.27 529.49 388.43
  Q 526.02 390.86 523.53 395.49
  Q 522.37 397.64 522.37 401.26
  Q 522.36 409.90 522.37 436.62
  A 0.38 0.38 0.0 0 1 521.99 437.00
  L 501.58 437.00
  Q 501.16 437.00 501.16 436.58
  L 501.16 369.23
  A 0.42 0.42 0.0 0 1 501.58 368.81
  L 517.98 368.81
  Q 518.53 368.81 518.60 369.36
  L 519.93 380.24
  Z"></path>
<path fill="#ffffff" d="
  M 436.42 409.24
  L 444.92 373.96
  A 0.32 0.32 0.0 0 1 445.54 373.96
  L 454.28 409.18
  A 0.32 0.32 0.0 0 1 453.97 409.58
  L 436.74 409.64
  A 0.32 0.32 0.0 0 1 436.42 409.24
  Z"></path>
<path fill="#ffffff" d="
  M 969.28 374.76
  A 0.35 0.35 0.0 0 1 969.63 374.41
  L 975.04 374.44
  A 22.74 21.54 -89.7 0 1 996.46 397.29
  L 996.42 406.69
  A 22.74 21.54 -89.7 0 1 974.76 429.32
  L 969.35 429.29
  A 0.35 0.35 0.0 0 1 969.00 428.94
  L 969.28 374.76
  Z"></path>
<path fill="#ffffff" d="
  M 286.86 387.03
  Q 293.88 387.46 296.52 387.89
  C 325.45 392.64 348.65 416.76 350.39 446.47
  Q 350.52 448.66 350.76 450.91
  L 321.96 451.01
  Q 322.23 441.62 317.67 433.84
  Q 307.42 416.36 286.79 415.63
  L 286.86 387.03
  Z"></path>
<path fill="#fed273" d="
  M 321.96 451.01
  Q 312.57 451.08 303.25 451.09
  C 296.63 451.10 291.51 452.90 288.43 458.52
  Q 286.53 461.99 286.70 467.00
  Q 286.88 472.11 286.57 487.11
  Q 286.22 486.25 284.52 486.41
  Q 283.18 486.54 282.48 486.44
  Q 262.67 483.52 254.22 465.76
  Q 251.12 459.26 251.25 451.23
  Q 258.51 451.05 265.95 451.12
  Q 274.12 451.20 276.87 450.36
  Q 283.10 448.46 285.47 442.56
  Q 286.77 439.32 286.70 430.31
  Q 286.65 423.11 286.79 415.63
  Q 307.42 416.36 317.67 433.84
  Q 322.23 441.62 321.96 451.01
  Z"></path>
<path fill="#f3752b" d="
  M 388.50 418.83
  Q 393.05 432.18 393.22 446.15
  Q 393.25 448.70 392.89 452.40
  Q 392.65 454.75 392.54 456.54
  C 391.39 474.28 376.75 489.01 359.94 492.70
  Q 355.25 493.73 344.99 493.78
  Q 337.26 493.82 329.96 493.78
  A 0.62 0.62 0.0 0 0 329.34 494.39
  Q 329.29 501.34 329.35 510.13
  Q 329.41 520.23 327.96 525.76
  C 324.14 540.43 312.01 553.25 296.76 556.39
  C 294.24 556.91 290.63 556.97 287.57 557.37
  Q 285.36 557.66 283.89 557.67
  Q 267.15 557.83 251.48 551.89
  Q 264.73 553.04 273.74 545.23
  Q 286.79 533.91 286.38 515.18
  L 286.57 487.11
  Q 286.88 472.11 286.70 467.00
  Q 286.53 461.99 288.43 458.52
  C 291.51 452.90 296.63 451.10 303.25 451.09
  Q 312.57 451.08 321.96 451.01
  L 350.76 450.91
  Q 366.56 451.24 377.80 441.33
  Q 384.14 435.74 386.32 427.78
  Q 386.46 427.25 386.93 423.24
  Q 387.24 420.61 388.50 418.83
  Z"></path>
<path fill="#ffffff" d="
  M 251.25 451.23
  Q 251.12 459.26 254.22 465.76
  Q 262.67 483.52 282.48 486.44
  Q 283.18 486.54 284.52 486.41
  Q 286.22 486.25 286.57 487.11
  L 286.38 515.18
  Q 255.50 514.27 236.68 491.08
  Q 222.96 474.16 222.65 451.20
  L 251.25 451.23
  Z"></path>
<path fill="#b83a14" d="
  M 222.65 451.20
  Q 222.96 474.16 236.68 491.08
  Q 255.50 514.27 286.38 515.18
  Q 286.79 533.91 273.74 545.23
  Q 264.73 553.04 251.48 551.89
  Q 234.70 545.88 221.34 535.42
  Q 195.17 514.94 185.10 483.62
  Q 186.47 469.06 195.96 460.72
  Q 202.51 454.97 210.93 452.64
  Q 213.32 451.98 222.65 451.20
  Z"></path>
<path fill="#000000" d="
  M 748.59 506.06
  L 748.59 498.23
  Q 748.59 497.80 749.02 497.80
  L 751.66 497.80
  Q 752.02 497.80 752.02 498.16
  L 752.02 521.08
  Q 752.02 521.56 751.55 521.65
  Q 749.16 522.14 748.97 520.61
  Q 748.89 519.94 748.33 520.31
  Q 745.50 522.18 743.99 522.08
  C 732.45 521.32 736.75 499.09 748.35 506.20
  Q 748.59 506.34 748.59 506.06
  Z
  M 748.7082 511.2975
  A 3.54 3.54 0.0 0 0 745.2495 507.6780
  L 744.6696 507.6649
  A 3.54 3.54 0.0 0 0 741.0502 511.1237
  L 740.9518 515.4625
  A 3.54 3.54 0.0 0 0 744.4105 519.0820
  L 744.9904 519.0951
  A 3.54 3.54 0.0 0 0 748.6098 515.6363
  L 748.7082 511.2975
  Z"></path>
<path fill="#000000" d="
  M 544.56 512.75
  L 550.00 506.01
  Q 550.51 505.37 551.33 505.37
  L 553.50 505.37
  Q 553.96 505.37 553.69 505.75
  L 549.09 512.02
  Q 548.88 512.31 549.07 512.61
  L 554.58 521.23
  Q 554.99 521.88 554.22 521.88
  L 551.97 521.88
  A 1.42 1.41 74.8 0 1 550.75 521.18
  L 547.14 514.93
  Q 546.87 514.46 546.44 514.80
  Q 543.13 517.43 544.05 521.24
  A 0.53 0.52 -6.9 0 1 543.54 521.89
  L 541.28 521.89
  Q 540.60 521.89 540.60 521.22
  L 540.60 498.45
  Q 540.60 498.00 541.05 498.00
  L 543.48 498.00
  Q 543.96 498.00 543.96 498.48
  L 543.96 512.54
  Q 543.96 513.50 544.56 512.75
  Z"></path>
<circle fill="#000000" cx="717.03" cy="500.14" r="2.09"></circle>
<circle fill="#000000" cx="661.18" cy="500.13" r="2.09"></circle>
<path fill="#000000" d="
  M 798.58 509.77
  C 804.27 511.86 803.48 518.75 798.33 520.72
  Q 793.42 522.60 788.43 518.88
  A 0.72 0.72 0.0 0 1 788.28 517.87
  L 789.20 516.62
  Q 789.57 516.10 790.05 516.53
  C 792.57 518.77 798.14 519.80 799.01 515.43
  Q 799.49 512.99 796.86 511.50
  Q 795.76 510.87 793.19 510.93
  Q 792.53 510.94 792.53 510.28
  L 792.53 508.75
  Q 792.53 508.21 793.07 508.22
  C 795.43 508.28 798.20 507.34 798.26 504.58
  C 798.30 502.95 797.43 501.65 795.79 501.36
  Q 793.03 500.86 790.68 503.17
  Q 790.52 503.32 790.38 503.15
  L 788.87 501.33
  Q 788.70 501.12 788.91 500.94
  Q 793.00 497.57 797.66 498.86
  Q 800.94 499.77 801.63 503.00
  Q 802.42 506.71 798.51 509.18
  Q 797.94 509.54 798.58 509.77
  Z"></path>
<path fill="#000000" d="
  M 481.80 514.36
  Q 481.85 514.36 481.87 514.29
  Q 484.45 506.83 487.19 499.39
  Q 487.39 498.87 487.95 498.87
  L 490.77 498.87
  Q 491.35 498.87 491.35 499.44
  L 491.35 520.55
  Q 491.35 520.94 490.95 520.94
  L 488.48 520.94
  Q 488.07 520.94 488.08 520.53
  L 488.39 504.54
  Q 488.41 503.52 488.06 504.48
  L 483.11 518.26
  A 1.03 0.79 -1.5 0 1 482.43 518.81
  Q 482.20 518.87 481.79 518.87
  Q 481.39 518.87 481.16 518.80
  A 1.03 0.79 1.6 0 1 480.48 518.26
  L 475.58 504.46
  Q 475.23 503.50 475.25 504.52
  L 475.50 520.51
  Q 475.51 520.92 475.10 520.92
  L 472.63 520.91
  Q 472.23 520.91 472.23 520.52
  L 472.30 499.41
  Q 472.31 498.84 472.89 498.84
  L 475.71 498.85
  Q 476.27 498.85 476.46 499.37
  Q 479.18 506.82 481.73 514.29
  Q 481.75 514.36 481.80 514.36
  Z"></path>
<path fill="#000000" d="
  M 632.10 517.17
  Q 632.14 517.17 632.17 517.15
  Q 632.25 517.13 632.27 517.04
  L 637.36 499.12
  Q 637.44 498.86 637.71 498.86
  L 640.71 498.86
  A 0.23 0.23 0.0 0 1 640.93 499.16
  L 634.37 520.30
  Q 634.20 520.84 633.64 520.88
  Q 633.20 520.92 632.10 520.92
  Q 631.00 520.92 630.55 520.89
  Q 630.00 520.84 629.83 520.30
  L 623.25 499.17
  A 0.23 0.23 0.0 0 1 623.47 498.87
  L 626.47 498.86
  Q 626.74 498.86 626.82 499.12
  L 631.92 517.04
  Q 631.94 517.13 632.02 517.15
  Q 632.06 517.17 632.10 517.17
  Z"></path>
<path fill="#000000" d="
  M 820.51 499.22
  A 0.38 0.38 0.0 0 1 820.89 498.84
  L 826.83 498.85
  A 9.96 9.71 0.1 0 1 836.77 508.57
  L 836.77 511.25
  A 9.96 9.71 0.1 0 1 826.79 520.95
  L 820.85 520.94
  A 0.38 0.38 0.0 0 1 820.47 520.56
  L 820.51 499.22
  Z
  M 823.96 502.04
  L 823.94 517.68
  A 0.39 0.39 0.0 0 0 824.33 518.07
  L 826.40 518.08
  A 6.95 6.78 -89.9 0 0 833.19 511.14
  L 833.19 508.62
  A 6.95 6.78 -89.9 0 0 826.42 501.66
  L 824.35 501.65
  A 0.39 0.39 0.0 0 0 823.96 502.04
  Z"></path>
<path fill="#000000" d="
  M 879.60 510.64
  Q 878.27 508.27 876.10 504.03
  Q 875.84 503.50 875.85 504.11
  L 876.18 520.61
  Q 876.18 520.94 875.85 520.94
  L 873.14 520.94
  Q 872.80 520.94 872.80 520.60
  L 872.80 499.49
  Q 872.80 498.95 873.34 498.86
  Q 874.60 498.66 875.90 498.94
  Q 876.41 499.05 876.67 499.50
  Q 877.38 500.70 882.14 509.16
  Q 883.47 511.52 885.65 515.77
  Q 885.91 516.30 885.90 515.69
  L 885.57 499.19
  Q 885.57 498.86 885.90 498.86
  L 888.61 498.86
  Q 888.95 498.86 888.95 499.20
  L 888.95 520.31
  Q 888.95 520.85 888.41 520.94
  Q 887.15 521.14 885.85 520.86
  Q 885.34 520.75 885.07 520.30
  Q 884.37 519.10 879.60 510.64
  Z"></path>
<path fill="#000000" d="
  M 909.91 520.94
  L 907.41 520.94
  A 0.49 0.49 0.0 0 1 906.92 520.45
  L 906.92 499.37
  A 0.49 0.49 0.0 0 1 907.41 498.88
  L 919.51 498.88
  A 0.49 0.49 0.0 0 1 920.00 499.37
  L 920.00 501.31
  A 0.49 0.49 0.0 0 1 919.51 501.80
  L 910.89 501.80
  A 0.49 0.49 0.0 0 0 910.40 502.29
  L 910.40 508.05
  A 0.49 0.49 0.0 0 0 910.89 508.54
  L 918.05 508.54
  A 0.49 0.49 0.0 0 1 918.54 509.03
  L 918.54 510.93
  A 0.49 0.49 0.0 0 1 918.05 511.42
  L 910.89 511.42
  A 0.49 0.49 0.0 0 0 910.40 511.91
  L 910.40 520.45
  A 0.49 0.49 0.0 0 1 909.91 520.94
  Z"></path>
<path fill="#000000" d="
  M 946.17 498.88
  Q 950.60 498.89 953.81 498.88
  Q 954.41 498.88 954.41 499.48
  L 954.41 501.19
  Q 954.41 501.80 953.80 501.80
  L 948.54 501.80
  Q 947.91 501.80 947.91 502.43
  L 947.91 520.22
  Q 947.91 520.79 947.34 520.88
  Q 947.07 520.92 946.16 520.92
  Q 945.25 520.92 944.98 520.88
  Q 944.42 520.79 944.42 520.22
  L 944.43 502.43
  Q 944.44 501.80 943.81 501.80
  L 938.55 501.79
  Q 937.94 501.79 937.94 501.18
  L 937.94 499.47
  Q 937.94 498.87 938.54 498.87
  Q 941.75 498.88 946.17 498.88
  Z"></path>
<path fill="#000000" d="
  M 519.11 516.71
  Q 518.71 516.90 517.25 517.67
  C 513.19 519.81 508.19 517.38 509.55 512.50
  C 510.48 509.14 515.21 508.07 518.00 507.84
  Q 519.59 507.71 519.02 506.34
  L 518.76 505.73
  A 2.67 2.44 78.5 0 0 516.52 504.10
  Q 513.97 504.02 511.81 505.53
  Q 511.37 505.84 511.09 505.37
  L 510.26 503.94
  A 0.59 0.58 60.1 0 1 510.47 503.15
  Q 513.54 501.31 516.77 501.30
  C 521.40 501.28 522.54 504.61 522.62 508.83
  Q 522.71 513.22 522.61 517.74
  Q 522.61 518.13 522.21 518.13
  L 520.18 518.13
  Q 519.89 518.13 519.75 517.88
  Q 519.58 517.58 519.64 517.08
  Q 519.71 516.42 519.11 516.71
  Z
  M 518.67 509.93
  C 516.56 510.68 512.34 510.54 512.72 513.95
  A 1.95 1.95 0.0 0 0 514.26 515.64
  Q 516.75 516.16 518.87 514.17
  Q 519.21 513.86 519.21 513.41
  L 519.21 510.30
  Q 519.21 509.73 518.67 509.93
  Z"></path>
<path fill="#000000" d="
  M 576.78 510.81
  A 0.52 0.52 0.0 0 0 576.29 511.49
  Q 578.37 517.91 585.01 514.85
  Q 585.27 514.73 585.46 514.95
  Q 586.01 515.63 586.30 516.42
  Q 586.44 516.81 586.08 517.03
  Q 582.16 519.39 578.27 518.06
  C 569.20 514.96 572.47 499.01 582.41 501.54
  C 586.29 502.53 587.40 506.60 587.09 510.30
  A 0.57 0.56 -87.2 0 1 586.53 510.81
  L 576.78 510.81
  Z
  M 576.79 508.50
  L 583.93 508.42
  A 0.27 0.27 0.0 0 0 584.20 508.15
  L 584.20 507.86
  A 3.90 3.74 89.4 0 0 580.42 504.00
  L 580.22 504.00
  A 3.90 3.74 89.4 0 0 576.52 507.94
  L 576.52 508.23
  A 0.27 0.27 0.0 0 0 576.79 508.50
  Z"></path>
<path fill="#000000" d="
  M 689.20 515.15
  Q 689.22 515.15 689.24 515.14
  Q 689.32 515.13 689.33 515.09
  L 693.39 501.89
  Q 693.46 501.65 693.71 501.65
  L 696.60 501.65
  A 0.22 0.22 0.0 0 1 696.81 501.94
  L 691.38 517.60
  Q 691.21 518.08 690.62 518.12
  Q 690.44 518.13 689.20 518.13
  Q 687.97 518.14 687.79 518.13
  Q 687.20 518.09 687.02 517.61
  L 681.50 501.98
  A 0.22 0.22 0.0 0 1 681.71 501.69
  L 684.60 501.68
  Q 684.85 501.68 684.92 501.91
  L 689.06 515.09
  Q 689.07 515.13 689.15 515.14
  Q 689.17 515.15 689.20 515.15
  Z"></path>
<path fill="#ffffff" d="
  M 823.96 502.04
  A 0.39 0.39 0.0 0 1 824.35 501.65
  L 826.42 501.66
  A 6.95 6.78 -89.9 0 1 833.19 508.62
  L 833.19 511.14
  A 6.95 6.78 -89.9 0 1 826.40 518.08
  L 824.33 518.07
  A 0.39 0.39 0.0 0 1 823.94 517.68
  L 823.96 502.04
  Z"></path>
<path fill="#ffffff" d="
  M 576.79 508.50
  A 0.27 0.27 0.0 0 1 576.52 508.23
  L 576.52 507.94
  A 3.90 3.74 89.4 0 1 580.22 504.00
  L 580.42 504.00
  A 3.90 3.74 89.4 0 1 584.20 507.86
  L 584.20 508.15
  A 0.27 0.27 0.0 0 1 583.93 508.42
  L 576.79 508.50
  Z"></path>
<rect fill="#000000" x="659.46" y="505.28" width="3.42" height="16.46" rx="0.37"></rect>
<rect fill="#000000" x="715.33" y="505.28" width="3.40" height="16.44" rx="0.32"></rect>
<rect fill="#ffffff" x="-3.83" y="-5.71" transform="translate(744.83,513.38) rotate(1.3)" width="7.66" height="11.42" rx="3.54"></rect>
<path fill="#ffffff" d="
  M 512.72 513.95
  C 512.34 510.54 516.56 510.68 518.67 509.93
  Q 519.21 509.73 519.21 510.30
  L 519.21 513.41
  Q 519.21 513.86 518.87 514.17
  Q 516.75 516.16 514.26 515.64
  A 1.95 1.95 0.0 0 1 512.72 513.95
  Z"></path>
</svg>