<?xml version="1.0" encoding="UTF-8" standalone="no"?>
<svg
   version="1.1"
   viewBox="0 0 840.40527 215.16737"
   id="svg82"
   sodipodi:docname="ArtNFT3D.svg"
   inkscape:version="1.4 (86a8ad7, 2024-10-11)"
   width="840.40527"
   height="215.16737"
   xmlns:inkscape="http://www.inkscape.org/namespaces/inkscape"
   xmlns:sodipodi="http://sodipodi.sourceforge.net/DTD/sodipodi-0.dtd"
   xmlns="http://www.w3.org/2000/svg"
   xmlns:svg="http://www.w3.org/2000/svg">
  <defs
     id="defs82" />
  <sodipodi:namedview
     id="namedview82"
     pagecolor="#ffffff"
     bordercolor="#000000"
     borderopacity="0.25"
     inkscape:showpageshadow="2"
     inkscape:pageopacity="0.0"
     inkscape:pagecheckerboard="0"
     inkscape:deskcolor="#d1d1d1"
     inkscape:zoom="0.90666667"
     inkscape:cx="420.77206"
     inkscape:cy="106.98529"
     inkscape:window-width="1920"
     inkscape:window-height="1018"
     inkscape:window-x="1913"
     inkscape:window-y="-6"
     inkscape:window-maximized="1"
     inkscape:current-layer="svg82"
     inkscape:lockguides="false"
     showguides="false" />
  <g
     stroke-width="2"
     fill="none"
     stroke-linecap="butt"
     id="g48"
     transform="translate(-179.05478,-343.50682)">
    <path
       stroke="#dc9d8a"
       vector-effect="non-scaling-stroke"
       d="m 185.1,483.62 q 10.07,31.32 36.24,51.8 13.36,10.46 30.14,16.47"
       id="path1" />
    <path
       stroke="#f9ba95"
       vector-effect="non-scaling-stroke"
       d="m 251.48,551.89 q 15.67,5.94 32.41,5.78 1.47,-0.01 3.68,-0.3 c 3.06,-0.4 6.67,-0.46 9.19,-0.98 15.25,-3.14 27.38,-15.96 31.2,-30.63 q 1.45,-5.53 1.39,-15.63 -0.06,-8.79 -0.01,-15.74 a 0.62,0.62 0 0 1 0.62,-0.61 q 7.3,0.04 15.03,0 10.26,-0.05 14.95,-1.08 c 16.81,-3.69 31.45,-18.42 32.6,-36.16 q 0.11,-1.79 0.35,-4.14 0.36,-3.7 0.33,-6.25 -0.17,-13.97 -4.72,-27.32"
       id="path2" />
    <path
       stroke="#dc9d8a"
       vector-effect="non-scaling-stroke"
       d="M 388.5,418.83 Q 369.95,366.55 317.82,348.98"
       id="path3" />
    <path
       stroke="#f9ba95"
       vector-effect="non-scaling-stroke"
       d="m 317.82,348.98 c -7.92,-2.92 -16.59,-3.96 -24.98,-4.4 q -3.62,-0.19 -5.69,0.12 -3.02,0.44 -5.66,0.59 c -17.54,1 -31.82,14.9 -36.1,31.23 q -1.45,5.53 -1.42,15.55 0.02,7.17 0.02,15.7 a 0.8,0.79 -90 0 1 -0.79,0.8 q -10.43,-0.02 -15,-0.06 -9.89,-0.09 -14.97,1.06 -15.06,3.43 -24.78,16.15 c -3.86,5.05 -7.2,12.28 -7.56,18.87 q -0.16,3.11 -0.46,5.24 -0.49,3.47 -0.34,7.86 0.45,13.09 5.01,25.93"
       id="path4" />
    <path
       stroke="#d65820"
       vector-effect="non-scaling-stroke"
       d="m 317.82,348.98 q -1.95,1.89 -5.57,2.31 -3.47,0.4 -4.94,1.02 -6.56,2.77 -11.17,8.09 -9.51,11 -9.28,26.63"
       id="path5" />
    <path
       stroke="#f9ba95"
       vector-effect="non-scaling-stroke"
       d="m 286.86,387.03 -0.07,28.6"
       id="path6" />
    <path
       stroke="#f9a44f"
       vector-effect="non-scaling-stroke"
       d="m 286.79,415.63 q -0.14,7.48 -0.09,14.68 0.07,9.01 -1.23,12.25 -2.37,5.9 -8.6,7.8 -2.75,0.84 -10.92,0.76 -7.44,-0.07 -14.7,0.11"
       id="path7" />
    <path
       stroke="#f9ba95"
       vector-effect="non-scaling-stroke"
       d="m 251.25,451.23 -28.6,-0.03"
       id="path8" />
    <path
       stroke="#d65820"
       vector-effect="non-scaling-stroke"
       d="m 222.65,451.2 q -9.33,0.78 -11.72,1.44 -8.42,2.33 -14.97,8.08 -9.49,8.34 -10.86,22.9"
       id="path9" />
    <path
       stroke="#dc9d8a"
       vector-effect="non-scaling-stroke"
       d="m 286.38,515.18 q -30.88,-0.91 -49.7,-24.1 -13.72,-16.92 -14.03,-39.88"
       id="path10" />
    <path
       stroke="#d65820"
       vector-effect="non-scaling-stroke"
       d="m 388.5,418.83 q -1.26,1.78 -1.57,4.41 -0.47,4.01 -0.61,4.54 -2.18,7.96 -8.52,13.55 -11.24,9.91 -27.04,9.58"
       id="path11" />
    <path
       stroke="#dc9d8a"
       vector-effect="non-scaling-stroke"
       d="m 350.76,450.91 q -0.24,-2.25 -0.37,-4.44 c -1.74,-29.71 -24.94,-53.83 -53.87,-58.58 q -2.64,-0.43 -9.66,-0.86"
       id="path12" />
    <path
       stroke="#f9ba95"
       vector-effect="non-scaling-stroke"
       d="m 350.76,450.91 -28.8,0.1"
       id="path13" />
    <path
       stroke="#ffe9b9"
       vector-effect="non-scaling-stroke"
       d="m 321.96,451.01 q 0.27,-9.39 -4.29,-17.17 -10.25,-17.48 -30.88,-18.21"
       id="path14" />
    <path
       stroke="#f9a44f"
       vector-effect="non-scaling-stroke"
       d="m 321.96,451.01 q -9.39,0.07 -18.71,0.08 c -6.62,0.01 -11.74,1.81 -14.82,7.43 q -1.9,3.47 -1.73,8.48 0.18,5.11 -0.13,20.11"
       id="path15" />
    <path
       stroke="#ffe9b9"
       vector-effect="non-scaling-stroke"
       d="m 286.57,487.11 q -0.35,-0.86 -2.05,-0.7 -1.34,0.13 -2.04,0.03 -19.81,-2.92 -28.26,-20.68 -3.1,-6.5 -2.97,-14.53"
       id="path16" />
    <path
       stroke="#d65820"
       vector-effect="non-scaling-stroke"
       d="m 251.48,551.89 q 13.25,1.15 22.26,-6.66 13.05,-11.32 12.64,-30.05"
       id="path17" />
    <path
       stroke="#f9ba95"
       vector-effect="non-scaling-stroke"
       d="m 286.38,515.18 0.19,-28.07"
       id="path18" />
    <path
       stroke="#808080"
       vector-effect="non-scaling-stroke"
       d="m 915.7,399.95 c 8.52,-3.76 13.92,-9.68 14.09,-19.43 0.31,-16.71 -13.43,-24.19 -28.29,-24.65 q -16.73,-0.52 -29.45,10.76 -0.36,0.32 -0.06,0.69 l 10.16,12.29 a 0.48,0.48 0 0 0 0.69,0.04 q 3.59,-3.35 7.51,-5.29 c 5.65,-2.78 16.57,-3.34 17.89,5.17 q 1.55,10.04 -8.25,12.76 -5.25,1.45 -10.86,1.32 -0.63,-0.02 -0.63,0.6 v 13.99 q 0,0.51 0.52,0.51 7.08,0 12.22,1.08 c 6.29,1.32 10.44,4.65 9.96,11.57 q -0.39,5.62 -4.96,7.86 -5.83,2.85 -13.49,1.23 -6.3,-1.33 -13.27,-7.61 -0.44,-0.39 -0.79,0.08 l -9.13,12.46 q -0.33,0.45 0.05,0.87 c 9.34,10.27 23.11,13.28 36.51,11.62 13.15,-1.63 25.33,-9.52 26.47,-23.4 q 0.68,-8.32 -3.51,-14.47 -4.47,-6.53 -13.32,-9.17 a 0.47,0.47 0 0 1 -0.06,-0.88"
       id="path19" />
    <path
       stroke="#808080"
       vector-effect="non-scaling-stroke"
       d="m 432.09,426.41 a 0.37,0.37 0 0 1 0.36,-0.28 h 25.77 a 0.37,0.37 0 0 1 0.36,0.28 l 5.01,19.98 a 0.37,0.37 0 0 0 0.36,0.28 h 21.74 a 0.37,0.37 0 0 0 0.35,-0.48 L 458.6,357.8 a 0.37,0.37 0 0 0 -0.35,-0.26 h -25.12 a 0.37,0.37 0 0 0 -0.35,0.26 l -27.44,88.39 a 0.37,0.37 0 0 0 0.35,0.48 h 21.01 a 0.37,0.37 0 0 0 0.36,-0.28 l 5.03,-19.98"
       id="path20" />
    <path
       stroke="#808080"
       vector-effect="non-scaling-stroke"
       d="m 654.83,405.86 q 2.2,4.24 20.81,40.25 0.27,0.52 0.85,0.52 h 20.68 q 0.51,0 0.51,-0.52 v -88.05 q 0,-0.56 -0.56,-0.56 h -19.15 q -0.57,0 -0.57,0.57 -0.26,34.26 0.3,39.68 1.12,10.88 2.34,21.74 0.04,0.41 -0.36,0.4 -0.23,-0.01 -0.32,-0.23 -4.61,-10.7 -9.57,-21.24 -0.02,-0.05 -0.07,-0.15 -2.2,-4.24 -20.81,-40.25 -0.27,-0.52 -0.85,-0.52 h -20.68 q -0.51,0 -0.51,0.52 v 88.05 q 0,0.56 0.56,0.56 h 19.15 q 0.57,0 0.57,-0.57 0.26,-34.26 -0.3,-39.68 -1.12,-10.88 -2.34,-21.74 -0.04,-0.41 0.36,-0.4 0.23,0.01 0.32,0.23 4.61,10.7 9.57,21.24 0.02,0.05 0.07,0.15"
       id="path21" />
    <path
       stroke="#808080"
       vector-effect="non-scaling-stroke"
       d="m 764.5,395.14 a 0.37,0.37 0 0 0 -0.37,-0.37 h -29.68 a 0.37,0.37 0 0 1 -0.37,-0.37 v -18.8 a 0.37,0.37 0 0 1 0.37,-0.37 h 34.72 a 0.37,0.37 0 0 0 0.37,-0.37 v -16.98 a 0.37,0.37 0 0 0 -0.37,-0.37 h -56.18 a 0.37,0.37 0 0 0 -0.37,0.37 v 88.4 a 0.37,0.37 0 0 0 0.37,0.37 h 20.72 a 0.37,0.37 0 0 0 0.37,-0.37 v -33.29 a 0.37,0.37 0 0 1 0.37,-0.37 h 29.68 a 0.37,0.37 0 0 0 0.37,-0.37 v -17.11"
       id="path22" />
    <path
       stroke="#808080"
       vector-effect="non-scaling-stroke"
       d="m 819.31,446.65 q 9.27,0 10.37,-0.01 a 0.39,0.38 -90 0 0 0.38,-0.39 v -70.52 a 0.49,0.49 0 0 1 0.49,-0.49 h 23.19 q 0.47,0 0.47,-0.48 v -16.98 a 0.24,0.24 0 0 0 -0.24,-0.24 q -17.28,-0.02 -34.61,-0.03 -17.33,-0.01 -34.62,-0.01 a 0.24,0.24 0 0 0 -0.23,0.24 l -0.02,16.98 q 0,0.48 0.47,0.48 l 23.19,0.03 a 0.49,0.49 0 0 1 0.49,0.49 l -0.08,70.52 a 0.39,0.38 -89.9 0 0 0.39,0.39 q 1.09,0.01 10.36,0.02"
       id="path23" />
    <path
       stroke="#808080"
       vector-effect="non-scaling-stroke"
       d="m 947.61,357.89 0.16,88.36 a 0.39,0.39 0 0 0 0.39,0.39 l 30.23,-0.05 a 40.14,40.11 -0.1 0 0 40.07,-40.18 l -0.02,-8.92 A 40.14,40.11 -0.1 0 0 978.23,357.45 L 948,357.5 a 0.39,0.39 0 0 0 -0.39,0.39"
       id="path24" />
    <path
       stroke="#808080"
       vector-effect="non-scaling-stroke"
       d="m 594.28,392.81 h 14.92 q 0.51,0 0.51,-0.51 v -15.63 q 0,-0.53 -0.54,-0.53 h -14.96 q -0.56,0 -0.56,-0.56 v -17.07 a 0.38,0.37 -90 0 0 -0.37,-0.38 H 576.4 a 0.56,0.56 0 0 0 -0.55,0.48 l -2.25,17.01 q -0.04,0.3 -0.35,0.34 l -9.67,1.17 q -0.48,0.06 -0.48,0.55 v 14.54 q 0,0.59 0.59,0.59 h 8.11 q 0.54,0 0.54,0.54 -0.02,12.39 0,25.94 c 0.03,12.88 4.77,24.17 18.92,26.27 q 9.18,1.37 20.15,-1.97 0.45,-0.14 0.35,-0.6 l -3.09,-14.23 q -0.1,-0.46 -0.58,-0.38 -0.22,0.04 -3.89,0.72 c -5.71,1.06 -9.45,-1.94 -10.33,-7.45 q -0.07,-0.48 -0.16,-6.15 -0.19,-11.85 0.06,-22.19 0.01,-0.5 0.51,-0.5"
       id="path25" />
    <path
       stroke="#808080"
       vector-effect="non-scaling-stroke"
       d="m 519.93,380.24 -1.33,-10.88 q -0.07,-0.55 -0.62,-0.55 h -16.4 a 0.42,0.42 0 0 0 -0.42,0.42 v 67.35 q 0,0.42 0.42,0.42 h 20.41 a 0.38,0.38 0 0 0 0.38,-0.38 q -0.01,-26.72 0,-35.36 0,-3.62 1.16,-5.77 2.49,-4.63 5.96,-7.06 5.9,-4.16 13.96,-1.66 1.05,0.32 1.26,-0.75 l 3.33,-16.97 a 0.6,0.59 -75.7 0 0 -0.4,-0.68 c -12.05,-3.96 -20.94,2.07 -27.04,12.02 q -0.55,0.88 -0.67,-0.15"
       id="path26" />
    <path
       stroke="#808080"
       vector-effect="non-scaling-stroke"
       d="m 748.35,506.2 c -11.6,-7.11 -15.9,15.12 -4.36,15.88 q 1.51,0.1 4.34,-1.77 0.56,-0.37 0.64,0.3 0.19,1.53 2.58,1.04 0.47,-0.09 0.47,-0.57 v -22.92 q 0,-0.36 -0.36,-0.36 h -2.64 q -0.43,0 -0.43,0.43 v 7.83 q 0,0.28 -0.24,0.14"
       id="path27" />
    <path
       stroke="#808080"
       vector-effect="non-scaling-stroke"
       d="m 543.96,512.54 v -14.06 q 0,-0.48 -0.48,-0.48 h -2.43 q -0.45,0 -0.45,0.45 v 22.77 q 0,0.67 0.68,0.67 h 2.26 a 0.53,0.52 -6.9 0 0 0.51,-0.65 q -0.92,-3.81 2.39,-6.44 0.43,-0.34 0.7,0.13 l 3.61,6.25 a 1.42,1.41 74.8 0 0 1.22,0.7 h 2.25 q 0.77,0 0.36,-0.65 l -5.51,-8.62 q -0.19,-0.3 0.02,-0.59 l 4.6,-6.27 q 0.27,-0.38 -0.19,-0.38 h -2.17 q -0.82,0 -1.33,0.64 l -5.44,6.74 q -0.6,0.75 -0.6,-0.21"
       id="path28" />
    <path
       stroke="#808080"
       vector-effect="non-scaling-stroke"
       d="m 719.12,500.14 a 2.09,2.09 0 0 0 -2.09,-2.09 2.09,2.09 0 0 0 -2.09,2.09 2.09,2.09 0 0 0 2.09,2.09 2.09,2.09 0 0 0 2.09,-2.09"
       id="path29" />
    <path
       stroke="#808080"
       vector-effect="non-scaling-stroke"
       d="m 663.27,500.13 a 2.09,2.09 0 0 0 -2.09,-2.09 2.09,2.09 0 0 0 -2.09,2.09 2.09,2.09 0 0 0 2.09,2.09 2.09,2.09 0 0 0 2.09,-2.09"
       id="path30" />
    <path
       stroke="#808080"
       vector-effect="non-scaling-stroke"
       d="m 798.51,509.18 q 3.91,-2.47 3.12,-6.18 -0.69,-3.23 -3.97,-4.14 -4.66,-1.29 -8.75,2.08 -0.21,0.18 -0.04,0.39 l 1.51,1.82 q 0.14,0.17 0.3,0.02 2.35,-2.31 5.11,-1.81 c 1.64,0.29 2.51,1.59 2.47,3.22 -0.06,2.76 -2.83,3.7 -5.19,3.64 q -0.54,-0.01 -0.54,0.53 v 1.53 q 0,0.66 0.66,0.65 2.57,-0.06 3.67,0.57 2.63,1.49 2.15,3.93 c -0.87,4.37 -6.44,3.34 -8.96,1.1 q -0.48,-0.43 -0.85,0.09 l -0.92,1.25 a 0.72,0.72 0 0 0 0.15,1.01 q 4.99,3.72 9.9,1.84 c 5.15,-1.97 5.94,-8.86 0.25,-10.95 q -0.64,-0.23 -0.07,-0.59"
       id="path31" />
    <path
       stroke="#808080"
       vector-effect="non-scaling-stroke"
       d="m 481.79,518.87 q 0.41,0 0.64,-0.06 a 1.03,0.79 -1.5 0 0 0.68,-0.55 l 4.95,-13.78 q 0.35,-0.96 0.33,0.06 l -0.31,15.99 q -0.01,0.41 0.4,0.41 h 2.47 q 0.4,0 0.4,-0.39 v -21.11 q 0,-0.57 -0.58,-0.57 h -2.82 q -0.56,0 -0.76,0.52 -2.74,7.44 -5.32,14.9 -0.02,0.07 -0.07,0.07 -0.05,0 -0.07,-0.07 -2.55,-7.47 -5.27,-14.92 -0.19,-0.52 -0.75,-0.52 l -2.82,-0.01 q -0.58,0 -0.59,0.57 l -0.07,21.11 q 0,0.39 0.4,0.39 l 2.47,0.01 q 0.41,0 0.4,-0.41 l -0.25,-15.99 q -0.02,-1.02 0.33,-0.06 l 4.9,13.8 a 1.03,0.79 1.6 0 0 0.68,0.54 q 0.23,0.07 0.63,0.07"
       id="path32" />
    <path
       stroke="#808080"
       vector-effect="non-scaling-stroke"
       d="m 632.1,520.92 q 1.1,0 1.54,-0.04 0.56,-0.04 0.73,-0.58 l 6.56,-21.14 a 0.23,0.23 0 0 0 -0.22,-0.3 h -3 q -0.27,0 -0.35,0.26 l -5.09,17.92 q -0.02,0.09 -0.1,0.11 -0.03,0.02 -0.07,0.02 -0.04,0 -0.08,-0.02 -0.08,-0.02 -0.1,-0.11 l -5.1,-17.92 q -0.08,-0.26 -0.35,-0.26 l -3,0.01 a 0.23,0.23 0 0 0 -0.22,0.3 l 6.58,21.13 q 0.17,0.54 0.72,0.59 0.45,0.03 1.55,0.03"
       id="path33" />
    <path
       stroke="#808080"
       vector-effect="non-scaling-stroke"
       d="m 820.51,499.22 -0.04,21.34 a 0.38,0.38 0 0 0 0.38,0.38 l 5.94,0.01 a 9.96,9.71 0.1 0 0 9.98,-9.7 v -2.68 a 9.96,9.71 0.1 0 0 -9.94,-9.72 l -5.94,-0.01 a 0.38,0.38 0 0 0 -0.38,0.38"
       id="path34" />
    <path
       stroke="#808080"
       vector-effect="non-scaling-stroke"
       d="m 879.6,510.64 q 4.77,8.46 5.47,9.66 0.27,0.45 0.78,0.56 1.3,0.28 2.56,0.08 0.54,-0.09 0.54,-0.63 V 499.2 q 0,-0.34 -0.34,-0.34 h -2.71 q -0.33,0 -0.33,0.33 l 0.33,16.5 q 0.01,0.61 -0.25,0.08 -2.18,-4.25 -3.51,-6.61 -4.76,-8.46 -5.47,-9.66 -0.26,-0.45 -0.77,-0.56 -1.3,-0.28 -2.56,-0.08 -0.54,0.09 -0.54,0.63 v 21.11 q 0,0.34 0.34,0.34 h 2.71 q 0.33,0 0.33,-0.33 l -0.33,-16.5 q -0.01,-0.61 0.25,-0.08 2.17,4.24 3.5,6.61"
       id="path35" />
    <path
       stroke="#808080"
       vector-effect="non-scaling-stroke"
       d="m 909.91,520.94 a 0.49,0.49 0 0 0 0.49,-0.49 v -8.54 a 0.49,0.49 0 0 1 0.49,-0.49 h 7.16 a 0.49,0.49 0 0 0 0.49,-0.49 v -1.9 a 0.49,0.49 0 0 0 -0.49,-0.49 h -7.16 a 0.49,0.49 0 0 1 -0.49,-0.49 v -5.76 a 0.49,0.49 0 0 1 0.49,-0.49 h 8.62 a 0.49,0.49 0 0 0 0.49,-0.49 v -1.94 a 0.49,0.49 0 0 0 -0.49,-0.49 h -12.1 a 0.49,0.49 0 0 0 -0.49,0.49 v 21.08 a 0.49,0.49 0 0 0 0.49,0.49 h 2.5"
       id="path36" />
    <path
       stroke="#808080"
       vector-effect="non-scaling-stroke"
       d="m 946.16,520.92 q 0.91,0 1.18,-0.04 0.57,-0.09 0.57,-0.66 v -17.79 q 0,-0.63 0.63,-0.63 h 5.26 q 0.61,0 0.61,-0.61 v -1.71 q 0,-0.6 -0.6,-0.6 -3.21,0.01 -7.64,0 -4.42,0 -7.63,-0.01 -0.6,0 -0.6,0.6 v 1.71 q 0,0.61 0.61,0.61 l 5.26,0.01 q 0.63,0 0.62,0.63 l -0.01,17.79 q 0,0.57 0.56,0.66 0.27,0.04 1.18,0.04"
       id="path37" />
    <path
       stroke="#808080"
       vector-effect="non-scaling-stroke"
       d="m 519.64,517.08 q -0.06,0.5 0.11,0.8 0.14,0.25 0.43,0.25 h 2.03 q 0.4,0 0.4,-0.39 0.1,-4.52 0.01,-8.91 c -0.08,-4.22 -1.22,-7.55 -5.85,-7.53 q -3.23,0.01 -6.3,1.85 a 0.59,0.58 60.1 0 0 -0.21,0.79 l 0.83,1.43 q 0.28,0.47 0.72,0.16 2.16,-1.51 4.71,-1.43 a 2.67,2.44 78.5 0 1 2.24,1.63 l 0.26,0.61 q 0.57,1.37 -1.02,1.5 c -2.79,0.23 -7.52,1.3 -8.45,4.66 -1.36,4.88 3.64,7.31 7.7,5.17 q 1.46,-0.77 1.86,-0.96 0.6,-0.29 0.53,0.37"
       id="path38" />
    <path
       stroke="#808080"
       vector-effect="non-scaling-stroke"
       d="m 576.78,510.81 h 9.75 a 0.57,0.56 -87.2 0 0 0.56,-0.51 c 0.31,-3.7 -0.8,-7.77 -4.68,-8.76 -9.94,-2.53 -13.21,13.42 -4.14,16.52 q 3.89,1.33 7.81,-1.03 0.36,-0.22 0.22,-0.61 -0.29,-0.79 -0.84,-1.47 -0.19,-0.22 -0.45,-0.1 -6.64,3.06 -8.72,-3.36 a 0.52,0.52 0 0 1 0.49,-0.68"
       id="path39" />
    <path
       stroke="#808080"
       vector-effect="non-scaling-stroke"
       d="m 689.2,518.13 q 1.24,0 1.42,-0.01 0.59,-0.04 0.76,-0.52 l 5.43,-15.66 a 0.22,0.22 0 0 0 -0.21,-0.29 h -2.89 q -0.25,0 -0.32,0.24 l -4.06,13.2 q -0.01,0.04 -0.09,0.05 -0.02,0.01 -0.04,0.01 -0.03,0 -0.05,-0.01 -0.08,-0.01 -0.09,-0.05 l -4.14,-13.18 q -0.07,-0.23 -0.32,-0.23 l -2.89,0.01 a 0.22,0.22 0 0 0 -0.21,0.29 l 5.52,15.63 q 0.18,0.48 0.77,0.52 0.18,0.01 1.41,0"
       id="path40" />
    <path
       stroke="#808080"
       vector-effect="non-scaling-stroke"
       d="m 662.88,505.65 a 0.37,0.37 0 0 0 -0.37,-0.37 h -2.68 a 0.37,0.37 0 0 0 -0.37,0.37 v 15.72 a 0.37,0.37 0 0 0 0.37,0.37 h 2.68 a 0.37,0.37 0 0 0 0.37,-0.37 v -15.72"
       id="path41" />
    <path
       stroke="#808080"
       vector-effect="non-scaling-stroke"
       d="m 718.73,505.6 a 0.32,0.32 0 0 0 -0.32,-0.32 h -2.76 a 0.32,0.32 0 0 0 -0.32,0.32 v 15.8 a 0.32,0.32 0 0 0 0.32,0.32 h 2.76 a 0.32,0.32 0 0 0 0.32,-0.32 v -15.8"
       id="path42" />
    <path
       stroke="#808080"
       vector-effect="non-scaling-stroke"
       d="m 436.42,409.24 a 0.32,0.32 0 0 0 0.32,0.4 l 17.23,-0.06 a 0.32,0.32 0 0 0 0.31,-0.4 l -8.74,-35.22 a 0.32,0.32 0 0 0 -0.62,0 l -8.5,35.28"
       id="path43" />
    <path
       stroke="#808080"
       vector-effect="non-scaling-stroke"
       d="M 969.28,374.76 969,428.94 a 0.35,0.35 0 0 0 0.35,0.35 l 5.41,0.03 a 22.74,21.54 -89.7 0 0 21.66,-22.63 l 0.04,-9.4 a 22.74,21.54 -89.7 0 0 -21.42,-22.85 l -5.41,-0.03 a 0.35,0.35 0 0 0 -0.35,0.35"
       id="path44" />
    <path
       stroke="#808080"
       vector-effect="non-scaling-stroke"
       d="m 748.7082,511.2975 a 3.54,3.54 0 0 0 -3.4587,-3.6195 l -0.5799,-0.0131 a 3.54,3.54 0 0 0 -3.6194,3.4588 l -0.0984,4.3388 a 3.54,3.54 0 0 0 3.4587,3.6195 l 0.5799,0.0131 a 3.54,3.54 0 0 0 3.6194,-3.4588 l 0.0984,-4.3388"
       id="path45" />
    <path
       stroke="#808080"
       vector-effect="non-scaling-stroke"
       d="m 823.96,502.04 -0.02,15.64 a 0.39,0.39 0 0 0 0.39,0.39 l 2.07,0.01 a 6.95,6.78 -89.9 0 0 6.79,-6.94 v -2.52 a 6.95,6.78 -89.9 0 0 -6.77,-6.96 l -2.07,-0.01 a 0.39,0.39 0 0 0 -0.39,0.39"
       id="path46" />
    <path
       stroke="#808080"
       vector-effect="non-scaling-stroke"
       d="m 518.67,509.93 c -2.11,0.75 -6.33,0.61 -5.95,4.02 a 1.95,1.95 0 0 0 1.54,1.69 q 2.49,0.52 4.61,-1.47 0.34,-0.31 0.34,-0.76 v -3.11 q 0,-0.57 -0.54,-0.37"
       id="path47" />
    <path
       stroke="#808080"
       vector-effect="non-scaling-stroke"
       d="m 576.79,508.5 7.14,-0.08 a 0.27,0.27 0 0 0 0.27,-0.27 v -0.29 A 3.9,3.74 89.4 0 0 580.42,504 h -0.2 a 3.9,3.74 89.4 0 0 -3.7,3.94 v 0.29 a 0.27,0.27 0 0 0 0.27,0.27"
       id="path48" />
  </g>
  <path
     fill="#ffffff"
     d="m 1020.9452,-343.50682 v 900 H -179.05478 v -900 z M 6.0452171,140.11318 q 10.0699999,31.32 36.2399999,51.8 13.36,10.46 30.14,16.47 15.67,5.94 32.410003,5.78 1.47,-0.01 3.68,-0.3 c 3.06,-0.4 6.67,-0.46 9.19,-0.98 15.25,-3.14 27.38,-15.96 31.2,-30.63 q 1.45,-5.53 1.39,-15.63 -0.06,-8.79 -0.01,-15.74 a 0.62,0.62 0 0 1 0.62,-0.61 q 7.3,0.04 15.03,0 10.26,-0.05 14.95,-1.08 c 16.81,-3.69 31.45,-18.42 32.6,-36.16 q 0.11,-1.79 0.35,-4.14 0.36,-3.7 0.33,-6.25 -0.17,-13.970004 -4.72,-27.320004 -18.55,-52.28 -70.68,-69.8500002 c -7.92,-2.92 -16.59,-3.96 -24.98,-4.4 q -3.62,-0.18999998 -5.69,0.12 -3.02,0.44 -5.66,0.59 c -17.540003,1 -31.820003,14.9000002 -36.100003,31.2300002 q -1.45,5.53 -1.42,15.55 0.02,7.17 0.02,15.7 a 0.79,0.8 0 0 1 -0.79,0.8 q -10.43,-0.02 -15,-0.06 -9.89,-0.09 -14.97,1.06 -15.06,3.43 -24.7799999,16.15 c -3.86,5.05 -7.2,12.28 -7.56,18.870004 q -0.16,3.11 -0.46,5.24 -0.48999999,3.47 -0.34,7.86 0.45,13.09 5.01,25.93 z M 736.64522,56.443176 c 8.52,-3.76 13.92,-9.68 14.09,-19.43 0.31,-16.71 -13.43,-24.19 -28.29,-24.65 q -16.73,-0.52 -29.45,10.76 -0.36,0.32 -0.06,0.69 l 10.16,12.29 a 0.48,0.48 0 0 0 0.69,0.04 q 3.59,-3.35 7.51,-5.29 c 5.65,-2.78 16.57,-3.34 17.89,5.17 q 1.55,10.04 -8.25,12.76 -5.25,1.45 -10.86,1.32 -0.63,-0.02 -0.63,0.6 v 13.99 q 0,0.51 0.52,0.51 7.08,0 12.22,1.08 c 6.29,1.32 10.44,4.65 9.96,11.57 q -0.39,5.62 -4.96,7.86 -5.83,2.85 -13.49,1.23 -6.3,-1.33 -13.27,-7.61 -0.44,-0.39 -0.79,0.08 l -9.13,12.46 q -0.33,0.45 0.05,0.87 c 9.34,10.270004 23.11,13.280004 36.51,11.620004 13.15,-1.63 25.33,-9.520004 26.47,-23.400004 q 0.68,-8.32 -3.51,-14.47 -4.47,-6.53 -13.32,-9.17 a 0.47,0.47 0 0 1 -0.06,-0.88 z m -483.61,26.46 a 0.37,0.37 0 0 1 0.36,-0.28 h 25.77 a 0.37,0.37 0 0 1 0.36,0.28 l 5.01,19.980004 a 0.37,0.37 0 0 0 0.36,0.28 h 21.74 a 0.37,0.37 0 0 0 0.35,-0.48 l -27.44,-88.390004 a 0.37,0.37 0 0 0 -0.35,-0.26 h -25.12 a 0.37,0.37 0 0 0 -0.35,0.26 l -27.44,88.390004 a 0.37,0.37 0 0 0 0.35,0.48 h 21.01 a 0.37,0.37 0 0 0 0.36,-0.28 z m 222.74,-20.55 q 2.2,4.24 20.81,40.250004 0.27,0.52 0.85,0.52 h 20.68 q 0.51,0 0.51,-0.52 V 14.553176 q 0,-0.56 -0.56,-0.56 h -19.15 q -0.57,0 -0.57,0.57 -0.26,34.26 0.3,39.68 1.12,10.88 2.34,21.74 0.04,0.41 -0.36,0.4 -0.23,-0.01 -0.32,-0.23 -4.61,-10.7 -9.57,-21.24 -0.02,-0.05 -0.07,-0.15 -2.2,-4.24 -20.81,-40.25 -0.27,-0.52 -0.85,-0.52 h -20.68 q -0.51,0 -0.51,0.52 v 88.050004 q 0,0.56 0.56,0.56 h 19.15 q 0.57,0 0.57,-0.57 0.26,-34.260004 -0.3,-39.680004 -1.12,-10.88 -2.34,-21.74 -0.04,-0.41 0.36,-0.4 0.23,0.01 0.32,0.23 4.61,10.7 9.57,21.24 0.02,0.05 0.07,0.15 z m 109.67,-10.72 a 0.37,0.37 0 0 0 -0.37,-0.37 h -29.68 a 0.37,0.37 0 0 1 -0.37,-0.37 v -18.8 a 0.37,0.37 0 0 1 0.37,-0.37 h 34.72 a 0.37,0.37 0 0 0 0.37,-0.37 v -16.98 a 0.37,0.37 0 0 0 -0.37,-0.37 h -56.18 a 0.37,0.37 0 0 0 -0.37,0.37 v 88.400004 a 0.37,0.37 0 0 0 0.37,0.37 h 20.72 a 0.37,0.37 0 0 0 0.37,-0.37 V 69.483176 a 0.37,0.37 0 0 1 0.37,-0.37 h 29.68 a 0.37,0.37 0 0 0 0.37,-0.37 z m 54.81,51.510004 q 9.27,0 10.37,-0.01 a 0.38,0.39 0 0 0 0.38,-0.39 V 32.223176 a 0.49,0.49 0 0 1 0.49,-0.49 h 23.19 q 0.47,0 0.47,-0.48 v -16.98 a 0.24,0.24 0 0 0 -0.24,-0.24 q -17.28,-0.02 -34.61,-0.03 -17.33,-0.01 -34.62,-0.01 a 0.24,0.24 0 0 0 -0.23,0.24 l -0.02,16.98 q 0,0.48 0.47,0.48 l 23.19,0.03 a 0.49,0.49 0 0 1 0.49,0.49 l -0.08,70.520004 a 0.38,0.39 0.1 0 0 0.39,0.39 q 1.09,0.01 10.36,0.02 z m 128.3,-88.760004 0.16,88.360004 a 0.39,0.39 0 0 0 0.39,0.39 l 30.23,-0.05 a 40.11,40.14 89.9 0 0 40.07,-40.180004 l -0.02,-8.92 a 40.11,40.14 89.9 0 0 -40.21,-40.04 l -30.23,0.05 a 0.39,0.39 0 0 0 -0.39,0.39 z m -353.33,34.92 h 14.92 q 0.51,0 0.51,-0.51 v -15.63 q 0,-0.53 -0.54,-0.53 h -14.96 q -0.56,0 -0.56,-0.56 v -17.07 a 0.37,0.38 0 0 0 -0.37,-0.38 h -16.88 a 0.56,0.56 0 0 0 -0.55,0.48 l -2.25,17.01 q -0.04,0.3 -0.35,0.34 l -9.67,1.17 q -0.48,0.06 -0.48,0.55 v 14.54 q 0,0.59 0.59,0.59 h 8.11 q 0.54,0 0.54,0.54 -0.02,12.39 0,25.94 c 0.03,12.88 4.77,24.17 18.92,26.270004 q 9.18,1.37 20.15,-1.97 0.45,-0.140004 0.35,-0.600004 l -3.09,-14.23 q -0.1,-0.46 -0.58,-0.38 -0.22,0.04 -3.89,0.72 c -5.71,1.06 -9.45,-1.94 -10.33,-7.45 q -0.07,-0.48 -0.16,-6.15 -0.19,-11.85 0.06,-22.19 0.01,-0.5 0.51,-0.5 z m -74.35,-12.57 -1.33,-10.88 q -0.07,-0.55 -0.62,-0.55 h -16.4 a 0.42,0.42 0 0 0 -0.42,0.42 v 67.35 q 0,0.42 0.42,0.42 h 20.41 a 0.38,0.38 0 0 0 0.38,-0.38 q -0.01,-26.72 0,-35.36 0,-3.62 1.16,-5.77 2.49,-4.63 5.96,-7.06 5.9,-4.16 13.96,-1.66 1.05,0.32 1.26,-0.75 l 3.33,-16.97 a 0.59,0.6 14.3 0 0 -0.4,-0.68 c -12.05,-3.96 -20.94,2.07 -27.04,12.02 q -0.55,0.88 -0.67,-0.15 z m 228.42,125.960004 c -11.6,-7.11 -15.9,15.12 -4.36,15.88 q 1.51,0.1 4.34,-1.77 0.56,-0.37 0.64,0.3 0.19,1.53 2.58,1.04 0.47,-0.09 0.47,-0.57 v -22.92 q 0,-0.36 -0.36,-0.36 h -2.64 q -0.43,0 -0.43,0.43 v 7.83 q 0,0.28 -0.24,0.14 z m -204.39,6.34 v -14.06 q 0,-0.48 -0.48,-0.48 h -2.43 q -0.45,0 -0.45,0.45 v 22.77 q 0,0.67 0.68,0.67 h 2.26 a 0.52,0.53 83.1 0 0 0.51,-0.65 q -0.92,-3.81 2.39,-6.44 0.43,-0.34 0.7,0.13 l 3.61,6.25 a 1.42,1.41 74.8 0 0 1.22,0.7 h 2.25 q 0.77,0 0.36,-0.65 l -5.51,-8.62 q -0.19,-0.3 0.02,-0.59 l 4.6,-6.27 q 0.27,-0.38 -0.19,-0.38 h -2.17 q -0.82,0 -1.33,0.64 l -5.44,6.74 q -0.6,0.75 -0.6,-0.21 z m 175.16,-12.4 a 2.09,2.09 0 0 0 -2.09,-2.09 2.09,2.09 0 0 0 -2.09,2.09 2.09,2.09 0 0 0 2.09,2.09 2.09,2.09 0 0 0 2.09,-2.09 z m -55.85,-0.01 a 2.09,2.09 0 0 0 -2.09,-2.09 2.09,2.09 0 0 0 -2.09,2.09 2.09,2.09 0 0 0 2.09,2.09 2.09,2.09 0 0 0 2.09,-2.09 z m 135.24,9.05 q 3.91,-2.47 3.12,-6.18 -0.69,-3.23 -3.97,-4.14 -4.66,-1.29 -8.75,2.08 -0.21,0.18 -0.04,0.39 l 1.51,1.82 q 0.14,0.17 0.3,0.02 2.35,-2.31 5.11,-1.81 c 1.64,0.29 2.51,1.59 2.47,3.22 -0.06,2.76 -2.83,3.7 -5.19,3.64 q -0.54,-0.01 -0.54,0.53 v 1.53 q 0,0.66 0.66,0.65 2.57,-0.06 3.67,0.57 2.63,1.49 2.15,3.93 c -0.87,4.37 -6.44,3.34 -8.96,1.1 q -0.48,-0.43 -0.85,0.09 l -0.92,1.25 a 0.72,0.72 0 0 0 0.15,1.01 q 4.99,3.72 9.9,1.84 c 5.15,-1.97 5.94,-8.86 0.25,-10.95 q -0.64,-0.23 -0.07,-0.59 z m -316.72,9.69 q 0.41,0 0.64,-0.06 a 0.79,1.03 88.5 0 0 0.68,-0.55 l 4.95,-13.78 q 0.35,-0.96 0.33,0.06 l -0.31,15.99 q -0.01,0.41 0.4,0.41 h 2.47 q 0.4,0 0.4,-0.39 v -21.11 q 0,-0.57 -0.58,-0.57 h -2.82 q -0.56,0 -0.76,0.52 -2.74,7.44 -5.32,14.9 -0.02,0.07 -0.07,0.07 -0.05,0 -0.07,-0.07 -2.55,-7.47 -5.27,-14.92 -0.19,-0.52 -0.75,-0.52 l -2.82,-0.01 q -0.58,0 -0.59,0.57 l -0.07,21.11 q 0,0.39 0.4,0.39 l 2.47,0.01 q 0.41,0 0.4,-0.41 l -0.25,-15.99 q -0.02,-1.02 0.33,-0.06 l 4.9,13.8 a 1.03,0.79 1.6 0 0 0.68,0.54 q 0.23,0.07 0.63,0.07 z m 150.31,2.05 q 1.1,0 1.54,-0.04 0.56,-0.04 0.73,-0.58 l 6.56,-21.14 a 0.23,0.23 0 0 0 -0.22,-0.3 h -3 q -0.27,0 -0.35,0.26 l -5.09,17.92 q -0.02,0.09 -0.1,0.11 -0.03,0.02 -0.07,0.02 -0.04,0 -0.08,-0.02 -0.08,-0.02 -0.1,-0.11 l -5.1,-17.92 q -0.08,-0.26 -0.35,-0.26 l -3,0.01 a 0.23,0.23 0 0 0 -0.22,0.3 l 6.58,21.13 q 0.17,0.54 0.72,0.59 0.45,0.03 1.55,0.03 z m 188.41,-21.7 -0.04,21.34 a 0.38,0.38 0 0 0 0.38,0.38 l 5.94,0.01 a 9.96,9.71 0.1 0 0 9.98,-9.7 v -2.68 a 9.96,9.71 0.1 0 0 -9.94,-9.72 l -5.94,-0.01 a 0.38,0.38 0 0 0 -0.38,0.38 z m 59.09,11.42 q 4.77,8.46 5.47,9.66 0.27,0.45 0.78,0.56 1.3,0.28 2.56,0.08 0.54,-0.09 0.54,-0.63 v -21.11 q 0,-0.34 -0.34,-0.34 h -2.71 q -0.33,0 -0.33,0.33 l 0.33,16.5 q 0.01,0.61 -0.25,0.08 -2.18,-4.25 -3.51,-6.61 -4.76,-8.46 -5.47,-9.66 -0.26,-0.45 -0.77,-0.56 -1.3,-0.28 -2.56,-0.08 -0.54,0.09 -0.54,0.63 v 21.11 q 0,0.34 0.34,0.34 h 2.71 q 0.33,0 0.33,-0.33 l -0.33,-16.5 q -0.01,-0.61 0.25,-0.08 2.17,4.24 3.5,6.61 z m 30.31,10.3 a 0.49,0.49 0 0 0 0.49,-0.49 v -8.54 a 0.49,0.49 0 0 1 0.49,-0.49 h 7.16 a 0.49,0.49 0 0 0 0.49,-0.49 v -1.9 a 0.49,0.49 0 0 0 -0.49,-0.49 h -7.16 a 0.49,0.49 0 0 1 -0.49,-0.49 v -5.76 a 0.49,0.49 0 0 1 0.49,-0.49 h 8.62 a 0.49,0.49 0 0 0 0.49,-0.49 v -1.94 a 0.49,0.49 0 0 0 -0.49,-0.49 h -12.1 a 0.49,0.49 0 0 0 -0.49,0.49 v 21.08 a 0.49,0.49 0 0 0 0.49,0.49 z m 36.25,-0.02 q 0.91,0 1.18,-0.04 0.57,-0.09 0.57,-0.66 v -17.79 q 0,-0.63 0.63,-0.63 h 5.26 q 0.61,0 0.61,-0.61 v -1.71 q 0,-0.6 -0.6,-0.6 -3.21,0.01 -7.64,0 -4.42,0 -7.63,-0.01 -0.6,0 -0.6,0.6 v 1.71 q 0,0.61 0.61,0.61 l 5.26,0.01 q 0.63,0 0.62,0.63 l -0.01,17.79 q 0,0.57 0.56,0.66 0.27,0.04 1.18,0.04 z m -426.52,-3.84 q -0.06,0.5 0.11,0.8 0.14,0.25 0.43,0.25 h 2.03 q 0.4,0 0.4,-0.39 0.1,-4.52 0.01,-8.91 c -0.08,-4.22 -1.22,-7.55 -5.85,-7.53 q -3.23,0.01 -6.3,1.85 a 0.59,0.58 60.1 0 0 -0.21,0.79 l 0.83,1.43 q 0.28,0.47 0.72,0.16 2.16,-1.51 4.71,-1.43 a 2.67,2.44 78.5 0 1 2.24,1.63 l 0.26,0.61 q 0.57,1.37 -1.02,1.5 c -2.79,0.23 -7.52,1.3 -8.45,4.66 -1.36,4.88 3.64,7.31 7.7,5.17 q 1.46,-0.77 1.86,-0.96 0.6,-0.29 0.53,0.37 z m 57.14,-6.27 h 9.75 a 0.56,0.57 2.8 0 0 0.56,-0.51 c 0.31,-3.7 -0.8,-7.77 -4.68,-8.76 -9.94,-2.53 -13.21,13.42 -4.14,16.52 q 3.89,1.33 7.81,-1.03 0.36,-0.22 0.22,-0.61 -0.29,-0.79 -0.84,-1.47 -0.19,-0.22 -0.45,-0.1 -6.64,3.06 -8.72,-3.36 a 0.52,0.52 0 0 1 0.49,-0.68 z m 112.42,7.32 q 1.24,0 1.42,-0.01 0.59,-0.04 0.76,-0.52 l 5.43,-15.66 a 0.22,0.22 0 0 0 -0.21,-0.29 h -2.89 q -0.25,0 -0.32,0.24 l -4.06,13.2 q -0.01,0.04 -0.09,0.05 -0.02,0.01 -0.04,0.01 -0.03,0 -0.05,-0.01 -0.08,-0.01 -0.09,-0.05 l -4.14,-13.18 q -0.07,-0.23 -0.32,-0.23 l -2.89,0.01 a 0.22,0.22 0 0 0 -0.21,0.29 l 5.52,15.63 q 0.18,0.48 0.77,0.52 0.18,0.01 1.41,0 z m -26.32,-12.48 a 0.37,0.37 0 0 0 -0.37,-0.37 h -2.68 a 0.37,0.37 0 0 0 -0.37,0.37 v 15.72 a 0.37,0.37 0 0 0 0.37,0.37 h 2.68 a 0.37,0.37 0 0 0 0.37,-0.37 z m 55.85,-0.05 a 0.32,0.32 0 0 0 -0.32,-0.32 h -2.76 a 0.32,0.32 0 0 0 -0.32,0.32 v 15.8 a 0.32,0.32 0 0 0 0.32,0.32 h 2.76 a 0.32,0.32 0 0 0 0.32,-0.32 z"
     id="path49"
     style="fill:#ffffff;fill-opacity:0" />
  <path
     fill="#f3752b"
     d="m 138.76522,5.4731758 q -1.95,1.89 -5.57,2.31 -3.47,0.4 -4.94,1.02 -6.56,2.7700002 -11.17,8.0900002 -9.51,11 -9.28,26.63 l -0.07,28.6 q -0.14,7.48 -0.09,14.68 0.07,9.01 -1.23,12.25 -2.37,5.900004 -8.600003,7.800004 -2.75,0.84 -10.92,0.76 -7.44,-0.07 -14.7,0.11 l -28.6,-0.03 q -9.33,0.78 -11.72,1.44 -8.42,2.33 -14.97,8.08 -9.4899999,8.34 -10.8599999,22.9 -4.56,-12.84 -5.01,-25.93 -0.14999999,-4.39 0.34,-7.86 0.3,-2.13 0.46,-5.24 c 0.36,-6.590004 3.7,-13.820004 7.56,-18.870004 q 9.7199999,-12.72 24.7799999,-16.15 5.08,-1.15 14.97,-1.06 4.57,0.04 15,0.06 a 0.79,0.8 0 0 0 0.79,-0.8 q 0,-8.53 -0.02,-15.7 -0.03,-10.02 1.42,-15.55 c 4.28,-16.33 18.56,-30.2300002 36.100003,-31.2300002 q 2.64,-0.15 5.66,-0.59 2.07,-0.30999998 5.69,-0.12 c 8.39,0.44 17.06,1.48 24.98,4.4 z"
     id="path50" />
  <path
     fill="#b83a14"
     d="m 138.76522,5.4731758 q 52.13,17.5700002 70.68,69.8500002 -1.26,1.78 -1.57,4.41 -0.47,4.01 -0.61,4.54 -2.18,7.96 -8.52,13.55 -11.24,9.910004 -27.04,9.580004 -0.24,-2.25 -0.37,-4.44 c -1.74,-29.710004 -24.94,-53.830004 -53.87,-58.580004 q -2.64,-0.43 -9.66,-0.86 -0.23,-15.63 9.28,-26.63 4.61,-5.32 11.17,-8.0900002 1.47,-0.62 4.94,-1.02 3.62,-0.42 5.57,-2.31 z"
     id="path51" />
  <path
     fill="#000000"
     d="m 736.64522,56.443176 a 0.47,0.47 0 0 0 0.06,0.88 q 8.85,2.64 13.32,9.17 4.19,6.15 3.51,14.47 c -1.14,13.88 -13.32,21.770004 -26.47,23.400004 -13.4,1.66 -27.17,-1.35 -36.51,-11.620004 q -0.38,-0.42 -0.05,-0.87 l 9.13,-12.46 q 0.35,-0.47 0.79,-0.08 6.97,6.28 13.27,7.61 7.66,1.62 13.49,-1.23 4.57,-2.24 4.96,-7.86 c 0.48,-6.92 -3.67,-10.25 -9.96,-11.57 q -5.14,-1.08 -12.22,-1.08 -0.52,0 -0.52,-0.51 v -13.99 q 0,-0.62 0.63,-0.6 5.61,0.13 10.86,-1.32 9.8,-2.72 8.25,-12.76 c -1.32,-8.51 -12.24,-7.95 -17.89,-5.17 q -3.92,1.94 -7.51,5.29 a 0.48,0.48 0 0 1 -0.69,-0.04 l -10.16,-12.29 q -0.3,-0.37 0.06,-0.69 12.72,-11.28 29.45,-10.76 c 14.86,0.46 28.6,7.94 28.29,24.65 -0.17,9.75 -5.57,15.67 -14.09,19.43 z"
     id="path52" />
  <path
     fill="#000000"
     d="m 253.03522,82.903176 -5.03,19.980004 a 0.37,0.37 0 0 1 -0.36,0.28 h -21.01 a 0.37,0.37 0 0 1 -0.35,-0.48 l 27.44,-88.390004 a 0.37,0.37 0 0 1 0.35,-0.26 h 25.12 a 0.37,0.37 0 0 1 0.35,0.26 l 27.44,88.390004 a 0.37,0.37 0 0 1 -0.35,0.48 h -21.74 a 0.37,0.37 0 0 1 -0.36,-0.28 l -5.01,-19.980004 a 0.37,0.37 0 0 0 -0.36,-0.28 h -25.77 a 0.37,0.37 0 0 0 -0.36,0.28 z m 4.33,-17.17 a 0.32,0.32 0 0 0 0.32,0.4 l 17.23,-0.06 a 0.32,0.32 0 0 0 0.31,-0.4 l -8.74,-35.22 a 0.32,0.32 0 0 0 -0.62,0 z"
     id="path53" />
  <path
     fill="#000000"
     d="m 490.66522,54.763176 q 0.05,0.1 0.07,0.15 4.96,10.54 9.57,21.24 0.09,0.22 0.32,0.23 0.4,0.01 0.36,-0.4 -1.22,-10.86 -2.34,-21.74 -0.56,-5.42 -0.3,-39.68 0,-0.57 0.57,-0.57 h 19.15 q 0.56,0 0.56,0.56 v 88.050004 q 0,0.52 -0.51,0.52 h -20.68 q -0.58,0 -0.85,-0.52 -18.61,-36.010004 -20.81,-40.250004 -0.05,-0.1 -0.07,-0.15 -4.96,-10.54 -9.57,-21.24 -0.09,-0.22 -0.32,-0.23 -0.4,-0.01 -0.36,0.4 1.22,10.86 2.34,21.74 0.56,5.42 0.3,39.680004 0,0.57 -0.57,0.57 h -19.15 q -0.56,0 -0.56,-0.56 V 14.513176 q 0,-0.52 0.51,-0.52 h 20.68 q 0.58,0 0.85,0.52 18.61,36.01 20.81,40.25 z"
     id="path54" />
  <path
     fill="#000000"
     d="m 585.44522,51.633176 v 17.11 a 0.37,0.37 0 0 1 -0.37,0.37 h -29.68 a 0.37,0.37 0 0 0 -0.37,0.37 v 33.290004 a 0.37,0.37 0 0 1 -0.37,0.37 h -20.72 a 0.37,0.37 0 0 1 -0.37,-0.37 V 14.373176 a 0.37,0.37 0 0 1 0.37,-0.37 h 56.18 a 0.37,0.37 0 0 1 0.37,0.37 v 16.98 a 0.37,0.37 0 0 1 -0.37,0.37 h -34.72 a 0.37,0.37 0 0 0 -0.37,0.37 v 18.8 a 0.37,0.37 0 0 0 0.37,0.37 h 29.68 a 0.37,0.37 0 0 1 0.37,0.37 z"
     id="path55" />
  <path
     fill="#000000"
     d="m 640.30522,14.003176 q 17.33,0.01 34.61,0.03 a 0.24,0.24 0 0 1 0.24,0.24 v 16.98 q 0,0.48 -0.47,0.48 h -23.19 a 0.49,0.49 0 0 0 -0.49,0.49 v 70.520004 a 0.38,0.39 0 0 1 -0.38,0.39 q -1.1,0.01 -10.37,0.01 -9.27,-0.01 -10.36,-0.02 a 0.38,0.39 0.1 0 1 -0.39,-0.39 l 0.08,-70.520004 a 0.49,0.49 0 0 0 -0.49,-0.49 l -23.19,-0.03 q -0.47,0 -0.47,-0.48 l 0.02,-16.98 a 0.24,0.24 0 0 1 0.23,-0.24 q 17.29,0 34.62,0.01 z"
     id="path56" />
  <path
     fill="#000000"
     d="m 768.55522,14.383176 a 0.39,0.39 0 0 1 0.39,-0.39 l 30.23,-0.05 a 40.11,40.14 89.9 0 1 40.21,40.04 l 0.02,8.92 a 40.11,40.14 89.9 0 1 -40.07,40.180004 l -30.23,0.05 a 0.39,0.39 0 0 1 -0.39,-0.39 z m 21.67,16.87 -0.28,54.18 a 0.35,0.35 0 0 0 0.35,0.35 l 5.41,0.03 a 21.54,22.74 0.3 0 0 21.66,-22.63 l 0.04,-9.4 a 21.54,22.74 0.3 0 0 -21.42,-22.85 l -5.41,-0.03 a 0.35,0.35 0 0 0 -0.35,0.35 z"
     id="path57" />
  <path
     fill="#000000"
     d="m 414.71522,49.803176 q -0.25,10.34 -0.06,22.19 0.09,5.67 0.16,6.15 c 0.88,5.51 4.62,8.51 10.33,7.45 q 3.67,-0.68 3.89,-0.72 0.48,-0.08 0.58,0.38 l 3.09,14.23 q 0.1,0.46 -0.35,0.600004 -10.97,3.34 -20.15,1.97 c -14.15,-2.100004 -18.89,-13.390004 -18.92,-26.270004 q -0.02,-13.55 0,-25.94 0,-0.54 -0.54,-0.54 h -8.11 q -0.59,0 -0.59,-0.59 v -14.54 q 0,-0.49 0.48,-0.55 l 9.67,-1.17 q 0.31,-0.04 0.35,-0.34 l 2.25,-17.01 a 0.56,0.56 0 0 1 0.55,-0.48 h 16.88 a 0.37,0.38 0 0 1 0.37,0.38 v 17.07 q 0,0.56 0.56,0.56 h 14.96 q 0.54,0 0.54,0.53 v 15.63 q 0,0.51 -0.51,0.51 h -14.92 q -0.5,0 -0.51,0.5 z"
     id="path58" />
  <path
     fill="#000000"
     d="m 340.87522,36.733176 q 0.12,1.03 0.67,0.15 c 6.1,-9.95 14.99,-15.98 27.04,-12.02 a 0.59,0.6 14.3 0 1 0.4,0.68 l -3.33,16.97 q -0.21,1.07 -1.26,0.75 -8.06,-2.5 -13.96,1.66 -3.47,2.43 -5.96,7.06 -1.16,2.15 -1.16,5.77 -0.01,8.64 0,35.36 a 0.38,0.38 0 0 1 -0.38,0.38 h -20.41 q -0.42,0 -0.42,-0.42 v -67.35 a 0.42,0.42 0 0 1 0.42,-0.42 h 16.4 q 0.55,0 0.62,0.55 z"
     id="path59" />
  <path
     fill="#ffffff"
     d="m 257.36522,65.733176 8.5,-35.28 a 0.32,0.32 0 0 1 0.62,0 l 8.74,35.22 a 0.32,0.32 0 0 1 -0.31,0.4 l -17.23,0.06 a 0.32,0.32 0 0 1 -0.32,-0.4 z"
     id="path60" />
  <path
     fill="#ffffff"
     d="m 790.22522,31.253176 a 0.35,0.35 0 0 1 0.35,-0.35 l 5.41,0.03 a 21.54,22.74 0.3 0 1 21.42,22.85 l -0.04,9.4 a 21.54,22.74 0.3 0 1 -21.66,22.63 l -5.41,-0.03 a 0.35,0.35 0 0 1 -0.35,-0.35 z"
     id="path61" />
  <path
     fill="#ffffff"
     d="m 107.80522,43.523176 q 7.02,0.43 9.66,0.86 c 28.93,4.75 52.13,28.87 53.87,58.580004 q 0.13,2.19 0.37,4.44 l -28.8,0.1 q 0.27,-9.390004 -4.29,-17.170004 -10.25,-17.48 -30.88,-18.21 z"
     id="path62" />
  <path
     fill="#fed273"
     d="m 142.90522,107.50318 q -9.39,0.07 -18.71,0.08 c -6.62,0.01 -11.74,1.81 -14.82,7.43 q -1.9,3.47 -1.73,8.48 0.18,5.11 -0.13,20.11 -0.35,-0.86 -2.05,-0.7 -1.34,0.13 -2.04,0.03 -19.810003,-2.92 -28.260003,-20.68 -3.1,-6.5 -2.97,-14.53 7.26,-0.18 14.7,-0.11 8.17,0.08 10.92,-0.76 6.230003,-1.9 8.600003,-7.800004 1.3,-3.24 1.23,-12.25 -0.05,-7.2 0.09,-14.68 20.63,0.73 30.88,18.21 4.56,7.78 4.29,17.170004 z"
     id="path63" />
  <path
     fill="#f3752b"
     d="m 209.44522,75.323176 q 4.55,13.35 4.72,27.320004 0.03,2.55 -0.33,6.25 -0.24,2.35 -0.35,4.14 c -1.15,17.74 -15.79,32.47 -32.6,36.16 q -4.69,1.03 -14.95,1.08 -7.73,0.04 -15.03,0 a 0.62,0.62 0 0 0 -0.62,0.61 q -0.05,6.95 0.01,15.74 0.06,10.1 -1.39,15.63 c -3.82,14.67 -15.95,27.49 -31.2,30.63 -2.52,0.52 -6.13,0.58 -9.19,0.98 q -2.21,0.29 -3.68,0.3 -16.740003,0.16 -32.410003,-5.78 13.25,1.15 22.26,-6.66 13.050003,-11.32 12.640003,-30.05 l 0.19,-28.07 q 0.31,-15 0.13,-20.11 -0.17,-5.01 1.73,-8.48 c 3.08,-5.62 8.2,-7.42 14.82,-7.43 q 9.32,-0.01 18.71,-0.08 l 28.8,-0.1 q 15.8,0.33 27.04,-9.580004 6.34,-5.59 8.52,-13.55 0.14,-0.53 0.61,-4.54 0.31,-2.63 1.57,-4.41 z"
     id="path64" />
  <path
     fill="#ffffff"
     d="m 72.195217,107.72318 q -0.13,8.03 2.97,14.53 8.45,17.76 28.260003,20.68 0.7,0.1 2.04,-0.03 1.7,-0.16 2.05,0.7 l -0.19,28.07 q -30.880003,-0.91 -49.700003,-24.1 -13.72,-16.92 -14.03,-39.88 z"
     id="path65" />
  <path
     fill="#b83a14"
     d="m 43.595217,107.69318 q 0.31,22.96 14.03,39.88 18.82,23.19 49.700003,24.1 0.41,18.73 -12.640003,30.05 -9.01,7.81 -22.26,6.66 -16.78,-6.01 -30.14,-16.47 -26.17,-20.48 -36.2399999,-51.8 1.37,-14.56 10.8599999,-22.9 6.55,-5.75 14.97,-8.08 2.39,-0.66 11.72,-1.44 z"
     id="path66" />
  <path
     fill="#000000"
     d="m 569.53522,162.55318 v -7.83 q 0,-0.43 0.43,-0.43 h 2.64 q 0.36,0 0.36,0.36 v 22.92 q 0,0.48 -0.47,0.57 -2.39,0.49 -2.58,-1.04 -0.08,-0.67 -0.64,-0.3 -2.83,1.87 -4.34,1.77 c -11.54,-0.76 -7.24,-22.99 4.36,-15.88 q 0.24,0.14 0.24,-0.14 z m 0.1182,5.2375 a 3.54,3.54 0 0 0 -3.4587,-3.6195 l -0.5799,-0.0131 a 3.54,3.54 0 0 0 -3.6194,3.4588 l -0.0984,4.3388 a 3.54,3.54 0 0 0 3.4587,3.6195 l 0.5799,0.0131 a 3.54,3.54 0 0 0 3.6194,-3.4588 z"
     id="path67" />
  <path
     fill="#000000"
     d="m 365.50522,169.24318 5.44,-6.74 q 0.51,-0.64 1.33,-0.64 h 2.17 q 0.46,0 0.19,0.38 l -4.6,6.27 q -0.21,0.29 -0.02,0.59 l 5.51,8.62 q 0.41,0.65 -0.36,0.65 h -2.25 a 1.42,1.41 74.8 0 1 -1.22,-0.7 l -3.61,-6.25 q -0.27,-0.47 -0.7,-0.13 -3.31,2.63 -2.39,6.44 a 0.52,0.53 83.1 0 1 -0.51,0.65 h -2.26 q -0.68,0 -0.68,-0.67 v -22.77 q 0,-0.45 0.45,-0.45 h 2.43 q 0.48,0 0.48,0.48 v 14.06 q 0,0.96 0.6,0.21 z"
     id="path68" />
  <circle
     fill="#000000"
     cx="537.97522"
     cy="156.63319"
     r="2.0899999"
     id="circle68" />
  <circle
     fill="#000000"
     cx="482.12521"
     cy="156.62318"
     r="2.0899999"
     id="circle69" />
  <path
     fill="#000000"
     d="m 619.52522,166.26318 c 5.69,2.09 4.9,8.98 -0.25,10.95 q -4.91,1.88 -9.9,-1.84 a 0.72,0.72 0 0 1 -0.15,-1.01 l 0.92,-1.25 q 0.37,-0.52 0.85,-0.09 c 2.52,2.24 8.09,3.27 8.96,-1.1 q 0.48,-2.44 -2.15,-3.93 -1.1,-0.63 -3.67,-0.57 -0.66,0.01 -0.66,-0.65 v -1.53 q 0,-0.54 0.54,-0.53 c 2.36,0.06 5.13,-0.88 5.19,-3.64 0.04,-1.63 -0.83,-2.93 -2.47,-3.22 q -2.76,-0.5 -5.11,1.81 -0.16,0.15 -0.3,-0.02 l -1.51,-1.82 q -0.17,-0.21 0.04,-0.39 4.09,-3.37 8.75,-2.08 3.28,0.91 3.97,4.14 0.79,3.71 -3.12,6.18 -0.57,0.36 0.07,0.59 z"
     id="path69" />
  <path
     fill="#000000"
     d="m 302.74522,170.85318 q 0.05,0 0.07,-0.07 2.58,-7.46 5.32,-14.9 0.2,-0.52 0.76,-0.52 h 2.82 q 0.58,0 0.58,0.57 v 21.11 q 0,0.39 -0.4,0.39 h -2.47 q -0.41,0 -0.4,-0.41 l 0.31,-15.99 q 0.02,-1.02 -0.33,-0.06 l -4.95,13.78 a 0.79,1.03 88.5 0 1 -0.68,0.55 q -0.23,0.06 -0.64,0.06 -0.4,0 -0.63,-0.07 a 1.03,0.79 1.6 0 1 -0.68,-0.54 l -4.9,-13.8 q -0.35,-0.96 -0.33,0.06 l 0.25,15.99 q 0.01,0.41 -0.4,0.41 l -2.47,-0.01 q -0.4,0 -0.4,-0.39 l 0.07,-21.11 q 0.01,-0.57 0.59,-0.57 l 2.82,0.01 q 0.56,0 0.75,0.52 2.72,7.45 5.27,14.92 0.02,0.07 0.07,0.07 z"
     id="path70" />
  <path
     fill="#000000"
     d="m 453.04522,173.66318 q 0.04,0 0.07,-0.02 0.08,-0.02 0.1,-0.11 l 5.09,-17.92 q 0.08,-0.26 0.35,-0.26 h 3 a 0.23,0.23 0 0 1 0.22,0.3 l -6.56,21.14 q -0.17,0.54 -0.73,0.58 -0.44,0.04 -1.54,0.04 -1.1,0 -1.55,-0.03 -0.55,-0.05 -0.72,-0.59 l -6.58,-21.13 a 0.23,0.23 0 0 1 0.22,-0.3 l 3,-0.01 q 0.27,0 0.35,0.26 l 5.1,17.92 q 0.02,0.09 0.1,0.11 0.04,0.02 0.08,0.02 z"
     id="path71" />
  <path
     fill="#000000"
     d="m 641.45522,155.71318 a 0.38,0.38 0 0 1 0.38,-0.38 l 5.94,0.01 a 9.96,9.71 0.1 0 1 9.94,9.72 v 2.68 a 9.96,9.71 0.1 0 1 -9.98,9.7 l -5.94,-0.01 a 0.38,0.38 0 0 1 -0.38,-0.38 z m 3.45,2.82 -0.02,15.64 a 0.39,0.39 0 0 0 0.39,0.39 l 2.07,0.01 a 6.78,6.95 0.1 0 0 6.79,-6.94 v -2.52 a 6.78,6.95 0.1 0 0 -6.77,-6.96 l -2.07,-0.01 a 0.39,0.39 0 0 0 -0.39,0.39 z"
     id="path72" />
  <path
     fill="#000000"
     d="m 700.54522,167.13318 q -1.33,-2.37 -3.5,-6.61 -0.26,-0.53 -0.25,0.08 l 0.33,16.5 q 0,0.33 -0.33,0.33 h -2.71 q -0.34,0 -0.34,-0.34 v -21.11 q 0,-0.54 0.54,-0.63 1.26,-0.2 2.56,0.08 0.51,0.11 0.77,0.56 0.71,1.2 5.47,9.66 1.33,2.36 3.51,6.61 0.26,0.53 0.25,-0.08 l -0.33,-16.5 q 0,-0.33 0.33,-0.33 h 2.71 q 0.34,0 0.34,0.34 v 21.11 q 0,0.54 -0.54,0.63 -1.26,0.2 -2.56,-0.08 -0.51,-0.11 -0.78,-0.56 -0.7,-1.2 -5.47,-9.66 z"
     id="path73" />
  <path
     fill="#000000"
     d="m 730.85522,177.43318 h -2.5 a 0.49,0.49 0 0 1 -0.49,-0.49 v -21.08 a 0.49,0.49 0 0 1 0.49,-0.49 h 12.1 a 0.49,0.49 0 0 1 0.49,0.49 v 1.94 a 0.49,0.49 0 0 1 -0.49,0.49 h -8.62 a 0.49,0.49 0 0 0 -0.49,0.49 v 5.76 a 0.49,0.49 0 0 0 0.49,0.49 h 7.16 a 0.49,0.49 0 0 1 0.49,0.49 v 1.9 a 0.49,0.49 0 0 1 -0.49,0.49 h -7.16 a 0.49,0.49 0 0 0 -0.49,0.49 v 8.54 a 0.49,0.49 0 0 1 -0.49,0.49 z"
     id="path74" />
  <path
     fill="#000000"
     d="m 767.11522,155.37318 q 4.43,0.01 7.64,0 0.6,0 0.6,0.6 v 1.71 q 0,0.61 -0.61,0.61 h -5.26 q -0.63,0 -0.63,0.63 v 17.79 q 0,0.57 -0.57,0.66 -0.27,0.04 -1.18,0.04 -0.91,0 -1.18,-0.04 -0.56,-0.09 -0.56,-0.66 l 0.01,-17.79 q 0.01,-0.63 -0.62,-0.63 l -5.26,-0.01 q -0.61,0 -0.61,-0.61 v -1.71 q 0,-0.6 0.6,-0.6 3.21,0.01 7.63,0.01 z"
     id="path75" />
  <path
     fill="#000000"
     d="m 340.05522,173.20318 q -0.4,0.19 -1.86,0.96 c -4.06,2.14 -9.06,-0.29 -7.7,-5.17 0.93,-3.36 5.66,-4.43 8.45,-4.66 q 1.59,-0.13 1.02,-1.5 l -0.26,-0.61 a 2.67,2.44 78.5 0 0 -2.24,-1.63 q -2.55,-0.08 -4.71,1.43 -0.44,0.31 -0.72,-0.16 l -0.83,-1.43 a 0.59,0.58 60.1 0 1 0.21,-0.79 q 3.07,-1.84 6.3,-1.85 c 4.63,-0.02 5.77,3.31 5.85,7.53 q 0.09,4.39 -0.01,8.91 0,0.39 -0.4,0.39 h -2.03 q -0.29,0 -0.43,-0.25 -0.17,-0.3 -0.11,-0.8 0.07,-0.66 -0.53,-0.37 z m -0.44,-6.78 c -2.11,0.75 -6.33,0.61 -5.95,4.02 a 1.95,1.95 0 0 0 1.54,1.69 q 2.49,0.52 4.61,-1.47 0.34,-0.31 0.34,-0.76 v -3.11 q 0,-0.57 -0.54,-0.37 z"
     id="path76" />
  <path
     fill="#000000"
     d="m 397.72522,167.30318 a 0.52,0.52 0 0 0 -0.49,0.68 q 2.08,6.42 8.72,3.36 0.26,-0.12 0.45,0.1 0.55,0.68 0.84,1.47 0.14,0.39 -0.22,0.61 -3.92,2.36 -7.81,1.03 c -9.07,-3.1 -5.8,-19.05 4.14,-16.52 3.88,0.99 4.99,5.06 4.68,8.76 a 0.56,0.57 2.8 0 1 -0.56,0.51 z m 0.01,-2.31 7.14,-0.08 a 0.27,0.27 0 0 0 0.27,-0.27 v -0.29 a 3.9,3.74 89.4 0 0 -3.78,-3.86 h -0.2 a 3.9,3.74 89.4 0 0 -3.7,3.94 v 0.29 a 0.27,0.27 0 0 0 0.27,0.27 z"
     id="path77" />
  <path
     fill="#000000"
     d="m 510.14522,171.64318 q 0.02,0 0.04,-0.01 0.08,-0.01 0.09,-0.05 l 4.06,-13.2 q 0.07,-0.24 0.32,-0.24 h 2.89 a 0.22,0.22 0 0 1 0.21,0.29 l -5.43,15.66 q -0.17,0.48 -0.76,0.52 -0.18,0.01 -1.42,0.01 -1.23,0.01 -1.41,0 -0.59,-0.04 -0.77,-0.52 l -5.52,-15.63 a 0.22,0.22 0 0 1 0.21,-0.29 l 2.89,-0.01 q 0.25,0 0.32,0.23 l 4.14,13.18 q 0.01,0.04 0.09,0.05 0.02,0.01 0.05,0.01 z"
     id="path78" />
  <path
     fill="#ffffff"
     d="m 644.90522,158.53318 a 0.39,0.39 0 0 1 0.39,-0.39 l 2.07,0.01 a 6.78,6.95 0.1 0 1 6.77,6.96 v 2.52 a 6.78,6.95 0.1 0 1 -6.79,6.94 l -2.07,-0.01 a 0.39,0.39 0 0 1 -0.39,-0.39 z"
     id="path79" />
  <path
     fill="#ffffff"
     d="m 397.73522,164.99318 a 0.27,0.27 0 0 1 -0.27,-0.27 v -0.29 a 3.9,3.74 89.4 0 1 3.7,-3.94 h 0.2 a 3.9,3.74 89.4 0 1 3.78,3.86 v 0.29 a 0.27,0.27 0 0 1 -0.27,0.27 z"
     id="path80" />
  <rect
     fill="#000000"
     x="480.40524"
     y="161.77318"
     width="3.4200001"
     height="16.459999"
     rx="0.37"
     id="rect80" />
  <rect
     fill="#000000"
     x="536.27521"
     y="161.77318"
     width="3.4000001"
     height="16.440001"
     rx="0.31999999"
     id="rect81" />
  <rect
     fill="#ffffff"
     x="565.65356"
     y="151.28351"
     transform="rotate(1.3)"
     width="7.6599998"
     height="11.42"
     rx="3.54"
     id="rect82" />
  <path
     fill="#ffffff"
     d="m 333.66522,170.44318 c -0.38,-3.41 3.84,-3.27 5.95,-4.02 q 0.54,-0.2 0.54,0.37 v 3.11 q 0,0.45 -0.34,0.76 -2.12,1.99 -4.61,1.47 a 1.95,1.95 0 0 1 -1.54,-1.69 z"
     id="path82" />
</svg>
